<mxfile host="app.diagrams.net" modified="2024-05-26T15:37:06.913Z" agent="Mozilla/5.0 (Windows NT 10.0; Win64; x64) AppleWebKit/537.36 (KHTML, like Gecko) Chrome/125.0.0.0 Safari/537.36" etag="int4LHwIE-80OW2Bu64W" version="24.4.8" type="device">
  <diagram name="Página-1" id="pPiwGTWQFZ155s_8xN19">
    <mxGraphModel dx="934" dy="1322" grid="1" gridSize="10" guides="1" tooltips="1" connect="1" arrows="1" fold="1" page="1" pageScale="1" pageWidth="827" pageHeight="1169" math="0" shadow="0">
      <root>
        <mxCell id="0" />
        <mxCell id="1" parent="0" />
        <mxCell id="JfnoBQDZP3zRKv3DhaKb-6" style="edgeStyle=orthogonalEdgeStyle;rounded=0;orthogonalLoop=1;jettySize=auto;html=1;exitX=0.5;exitY=1;exitDx=0;exitDy=0;entryX=0.5;entryY=0;entryDx=0;entryDy=0;" parent="1" source="JfnoBQDZP3zRKv3DhaKb-1" target="JfnoBQDZP3zRKv3DhaKb-3" edge="1">
          <mxGeometry relative="1" as="geometry" />
        </mxCell>
        <mxCell id="JfnoBQDZP3zRKv3DhaKb-1" value="1" style="ellipse;whiteSpace=wrap;html=1;aspect=fixed;" parent="1" vertex="1">
          <mxGeometry x="100" y="100" width="40" height="40" as="geometry" />
        </mxCell>
        <mxCell id="JfnoBQDZP3zRKv3DhaKb-12" style="edgeStyle=orthogonalEdgeStyle;rounded=0;orthogonalLoop=1;jettySize=auto;html=1;exitX=0.5;exitY=1;exitDx=0;exitDy=0;entryX=0.5;entryY=0;entryDx=0;entryDy=0;" parent="1" source="JfnoBQDZP3zRKv3DhaKb-3" target="JfnoBQDZP3zRKv3DhaKb-10" edge="1">
          <mxGeometry relative="1" as="geometry" />
        </mxCell>
        <mxCell id="JfnoBQDZP3zRKv3DhaKb-3" value="2" style="ellipse;whiteSpace=wrap;html=1;aspect=fixed;" parent="1" vertex="1">
          <mxGeometry x="100" y="180" width="40" height="40" as="geometry" />
        </mxCell>
        <mxCell id="JfnoBQDZP3zRKv3DhaKb-4" value="5" style="ellipse;whiteSpace=wrap;html=1;aspect=fixed;" parent="1" vertex="1">
          <mxGeometry x="290" y="340" width="40" height="40" as="geometry" />
        </mxCell>
        <mxCell id="JfnoBQDZP3zRKv3DhaKb-23" style="edgeStyle=orthogonalEdgeStyle;rounded=0;orthogonalLoop=1;jettySize=auto;html=1;exitX=0.5;exitY=1;exitDx=0;exitDy=0;entryX=0.5;entryY=0;entryDx=0;entryDy=0;" parent="1" source="JfnoBQDZP3zRKv3DhaKb-10" target="JfnoBQDZP3zRKv3DhaKb-15" edge="1">
          <mxGeometry relative="1" as="geometry" />
        </mxCell>
        <mxCell id="JfnoBQDZP3zRKv3DhaKb-10" value="3" style="ellipse;whiteSpace=wrap;html=1;aspect=fixed;" parent="1" vertex="1">
          <mxGeometry x="100" y="260" width="40" height="40" as="geometry" />
        </mxCell>
        <mxCell id="JfnoBQDZP3zRKv3DhaKb-15" value="4" style="ellipse;whiteSpace=wrap;html=1;aspect=fixed;" parent="1" vertex="1">
          <mxGeometry x="100" y="330" width="40" height="40" as="geometry" />
        </mxCell>
        <mxCell id="JfnoBQDZP3zRKv3DhaKb-19" value="6" style="ellipse;whiteSpace=wrap;html=1;aspect=fixed;" parent="1" vertex="1">
          <mxGeometry x="190" y="400" width="40" height="40" as="geometry" />
        </mxCell>
        <mxCell id="JfnoBQDZP3zRKv3DhaKb-20" value="" style="endArrow=classic;html=1;rounded=0;exitX=1;exitY=0.5;exitDx=0;exitDy=0;" parent="1" source="JfnoBQDZP3zRKv3DhaKb-1" edge="1">
          <mxGeometry width="50" height="50" relative="1" as="geometry">
            <mxPoint x="200" y="250" as="sourcePoint" />
            <mxPoint x="300" y="340" as="targetPoint" />
          </mxGeometry>
        </mxCell>
        <mxCell id="JfnoBQDZP3zRKv3DhaKb-21" value="" style="endArrow=classic;html=1;rounded=0;exitX=1;exitY=0.5;exitDx=0;exitDy=0;" parent="1" source="JfnoBQDZP3zRKv3DhaKb-3" edge="1">
          <mxGeometry width="50" height="50" relative="1" as="geometry">
            <mxPoint x="150" y="140" as="sourcePoint" />
            <mxPoint x="300" y="340" as="targetPoint" />
          </mxGeometry>
        </mxCell>
        <mxCell id="JfnoBQDZP3zRKv3DhaKb-22" value="" style="endArrow=classic;html=1;rounded=0;exitX=1;exitY=0.5;exitDx=0;exitDy=0;" parent="1" source="JfnoBQDZP3zRKv3DhaKb-10" edge="1">
          <mxGeometry width="50" height="50" relative="1" as="geometry">
            <mxPoint x="150" y="220" as="sourcePoint" />
            <mxPoint x="300" y="340" as="targetPoint" />
          </mxGeometry>
        </mxCell>
        <mxCell id="JfnoBQDZP3zRKv3DhaKb-25" value="" style="endArrow=classic;html=1;rounded=0;exitX=0;exitY=0.5;exitDx=0;exitDy=0;entryX=0.5;entryY=0;entryDx=0;entryDy=0;" parent="1" source="JfnoBQDZP3zRKv3DhaKb-4" target="JfnoBQDZP3zRKv3DhaKb-19" edge="1">
          <mxGeometry width="50" height="50" relative="1" as="geometry">
            <mxPoint x="210" y="300" as="sourcePoint" />
            <mxPoint x="260" y="250" as="targetPoint" />
          </mxGeometry>
        </mxCell>
        <mxCell id="JfnoBQDZP3zRKv3DhaKb-26" value="" style="endArrow=classic;html=1;rounded=0;exitX=0.5;exitY=1;exitDx=0;exitDy=0;entryX=0.5;entryY=0;entryDx=0;entryDy=0;" parent="1" source="JfnoBQDZP3zRKv3DhaKb-15" target="JfnoBQDZP3zRKv3DhaKb-19" edge="1">
          <mxGeometry width="50" height="50" relative="1" as="geometry">
            <mxPoint x="300" y="370" as="sourcePoint" />
            <mxPoint x="210" y="420" as="targetPoint" />
          </mxGeometry>
        </mxCell>
        <mxCell id="JfnoBQDZP3zRKv3DhaKb-27" value="&lt;span style=&quot;font-size: 19px;&quot;&gt;E1_Pruebas de software&lt;/span&gt;" style="text;html=1;align=center;verticalAlign=middle;whiteSpace=wrap;rounded=0;" parent="1" vertex="1">
          <mxGeometry x="200" y="80" width="220" height="30" as="geometry" />
        </mxCell>
        <mxCell id="JfnoBQDZP3zRKv3DhaKb-28" value="" style="rounded=0;whiteSpace=wrap;html=1;fillColor=#FF1717;gradientColor=none;opacity=40;" parent="1" vertex="1">
          <mxGeometry x="40" y="80" width="590" height="490" as="geometry" />
        </mxCell>
        <mxCell id="JfnoBQDZP3zRKv3DhaKb-30" value="&lt;div&gt;Complejidad ciclomática: aristas(línea)-Nodos(circulo)+2&lt;/div&gt;V(G)=(8-6)+2=4&lt;div&gt;Complejidad ciclomática: Nodos Predicados(circulo con dos salidas)+1&lt;/div&gt;&lt;div&gt;V(G)=(3)+1=4&lt;/div&gt;&lt;div&gt;V(G)=Numero De Regiones = 4&lt;/div&gt;&lt;div&gt;&lt;br&gt;&lt;/div&gt;" style="text;html=1;align=center;verticalAlign=middle;whiteSpace=wrap;rounded=0;" parent="1" vertex="1">
          <mxGeometry x="100" y="490" width="470" height="60" as="geometry" />
        </mxCell>
        <mxCell id="yl7WPXbBKKlvr1R5QcPl-6" value="" style="shape=image;verticalLabelPosition=bottom;labelBackgroundColor=default;verticalAlign=top;aspect=fixed;imageAspect=0;image=data:image/png,iVBORw0KGgoAAAANSUhEUgAAAUUAAAFqCAYAAACNjki+AAAgAElEQVR4Ae2dYbKkKgyFXZcL6vW4ml7J/HMxvAqIjYgBEgF990zVne4WgvARjgIKkwn+/fv3L/iFr7UEwK+W2DE++B151P4Cv1pix/ie3+QPT9Nk8AcG8AH4wF/2AdLDidSR/v4yCJQdQgAfgA+QD1gtjO8U/W981hMgqPgnJwB+cnZkCX5yfsTO89tbcXhQnvTftvRQ/zYFeenBT86OLMFPzi/UP4iinOPJEk55QlJ1APyqcJ0ig98JSfEBiGIxqrqIcMo6XnFs8IuJ1P0GvzpeYWyIYkjjxu9wSh1M8AM/HQG5dVtRXL9m+czBbPZsPssqz22h5fr9mM+3/Xm47NzRqL+f9Czg58uduUPY92Om6WNaZuMOfo7EapY54jh/TFs3dOec256Erej7+EWnWb/mE/CcP4spb2lnLtm22sHXohLuekXHbx5T/JoPzeIQNEttNQRgnibT1lm2RjDXVFaMRf/7Dqe0ovj5mnVdD3+luVuXj6lz2sKUOzjqHfxcaeKGuJrvQhfqlqIen7OQ643R7uMXZmprW+STdJhuekggi9tazGVLj7Pv4GthCek7sfP8bhVF26BThR1QyLjQPX57qJpzeVGUprFS40/VgTRBb9ehDu/g57IbN0Q66i7Y7e64U+f08Pp83scvyO+6mHmaj3fZ38XMxXfeAi4dfC0oof1K7Dy/G0XROV36jnA13+92pbFZWI9d7Dm8gnuIX/Pdu+FbFzy8jY8qhcTkd26XBnWnf135uBsfhk233F15qDHwmt+8KPLlsrZb5VJeHA9vs3WBdlU4ln861IG7I9i7TBS2xN3njH1Nobe4d/BzSXkfCjt54bEUE38syLgVhMg3d58kn4l8eibm4fDRbHbcNtn7mQW53Rt1eEz93TKYonLEqXLlCrk7u2NbHeNrcQnI97z/3SeKRfB+UKbAoY5C4CBOdHXaxgipS2gzTY1z65YfbYw5gk6lcew+OXvf3aZKpW6/bsTMQ42B1/yOy3W0zZfrfKf4s6GLhJcJf574tzvfZuPryHeZgu4nb3/MdemvO/iF+f9dJOloeNFOMXHHDi4QiSKV+SeEsc/80vTDirYuGjML2d7HL0yV2pabI6Bhma8bFztE4H3BcQnrwnL0kMzGrbOvHQrQrPtsHSi6zY7PfPWbbpf3Lt8ZokmlfbBJi2JYEcc0qIFEeY0awFVWueN3OKV1sOBuj9KsYXMligcWqUKEPK94Bw38lERofwosO3AHP3cm70O/sdnjmKIP95cEsnLHrkUx4TNU5p1JKk0nxIc0QxQ3MAuTu49fmKr7vn6XYLKF7oBDdlH8Q7nOXA6iOMjXohy7m67tjbQhd4qUIYK8fD7m83ETMTUN3xboAL5SFJMCmHD6mFzm9x1O6a+66VOdHewo9sbUiOJlHaT4HATA5e7SPp357NE7+G05y8w+JzjmRNEyiWa07cXLd6+v0wwvSHczC6Hexy9MNf6+bneOx5uK63KduZxF0TPcztXB1+JSETvP7z5RPHRPolPax3To1puOO0gkgnQrbg8dBO4MMW74NvWDDUTR90bKRDFTB1lRzNhH1V/60ztlafzreAkfOkROhbtjh7u6kEP4/ZCW/3GdphNFF37t9z4d+ed9/MI80FMQ4W/67u6Ay8p15lIniu25UYkaiaITpt8dXwAyVP6Ucx0E7gzxdlG0lXq80rlzRFesoAglX+9wyi53irk6sOERn6o6LKF1jnMHP5dqwocOp0uFu2OXopjyGbrE74KRSjPoPueYH/In+3Efv+D8Yb3vh2vKdeZyFsX+vrYXZfvSTBT9FcQ9p7g9Zxc/pxg3OD+j3HVMcRPw/SHUeNA8Rlb2+w6n9KKYfk7x7GCnC8bJiQtsLupgnwyLJ1qydVjGK451Bz+XZqLMh5Olwt2xsMxu9v13obR1E/hp/Ns9v+cnA7ehDD/m2IhZWKz7+IWpOgG0XLZnZ93Ey8aloFzep32q9Ps3pHDm7h68L0/fp6v5bCiKdrAweAyG+unxozDkLNs4Ij02QsLU/U6R8B0fI7jjgec7nNI6UDzRMvlHIhKNOXZKPzwRPZLzc0LnOnwduHo8PJJDz6b5Bk7BbB3K3PMOflvp7JhiXOZfrhIcKdCy3MYN6UmHqMyxzxwfY3Jpfr7B2x/RY2MtmP3K1HCVHH/R9H5ZWy7L8TdheBTFMb4WcqPvbUUxPtsf+n1fo/5D0IKigl8AQ/AV/ATQNhOIopwdawmnZPFkA8Evi4iNAH4sHjYQosjikQfCKeXsyBL8wE9HQG4NUZSzYy3RqFk82UDwyyJiI4Afi4cNPIgiNq5KPZCLY95J8Alf+Es+gI2r2GtHfSA5D/7JCYCfnB1Zgp+cnxd+y9EnEx70x/BZRwBOWccrjg1+MZG63+BXxyuMHerffmsTHgwj43s5AThlOatUTPBLUSk/Bn7lrOKYof5BFGM6it9wSgU8dP908MBPxQ+iqMJ3bQxRvGZTEgJ+JZSu44DfNZtcCEQxR0gYDqcUgtvMXskvegVuptWfdBjE1q/kJy7tvYYQxXt57qnBKXcUoi/v4xcsZrAtlmBXcN8XjRBhEBu9j5+4qLcbQhRvR+oShFPqwL6O32kxDr+oRLQUlg5LsfXr+BWXrH1EiGIjxnBKHdgx/I6rJR1XvhGUJyWUgmQkJmP4SXL6PBuIYqM6gVPqwI7g59f682vF+t+uJNtagn7JrP3zt8ZiXOJ4s6o4vOXvEfxalqdn2hDFRrThlDqwj+B3WNuTusPbYsmHz6tyOhG9Xsfxyu6e44/gd09RuqcCUWyEHE6pAzuK3/WmS7Rg7Gzm01/qTjHeV1vHQmI9ip8kr0+zgSg2qhE4pQ5sf37b7DGzidr6/Zrv6e+3f7Yr8U8QfTdcR0Jm3Z+fLJ9PtIIoNqoVOKUObHd+dlIkuuuLu8/ZIj1DECmb3fll2bwnAkSxUV3BKXVgu/OLZ4r9g9jFzxl6QVxMvNHYiDvG7vx01f0oa4hio+qAU+rAjuCn2UzKzTSn11scMdkygp+uxp9jDVFsVBdwSh1Y8AM/HQG5NURRzo61RKNm8WQDwS+LiI0AfiweNhCiyOKRB8Ip5ezIEvzAT0dAbg1RlLNjLdGoWTzZQPDLImIjgB+Lhw2EKLJ45IFwSjk7sgQ/8NMRkFtDFOXsWEs0ahZPNhD8sojYCODH4mEDIYosHnkgnFLOjizBD/x0BOTWEEU5O9YSjZrFkw0EvywiNgL4sXjYQIgii0ceCKeUsyNL8AM/HQG5NURRzo61RKNm8WQDwS+LiI0AfiweNhCiyOKRB8Ip5ezIsj8/t0qO9pW88FVBu3L3iBefh/DT1feTrCGKjWqjf6NuVJBByfbnpxfFfaVtK4SrsSt3Fy8ocS/o/vzuzf/I1CCKjejDKXVg+/PTiqJbaftz2NOUjmHjKp0n9LeGKDZi3r9RNyrIoGT78/Oi+DXLZ7bd92mazVHkGBi09uIUrcfIRG8d1J9f6xL1Sx+i2Ig1nFIHtj8/J4okhMs2Drh3h21R+I2rbFxatfu7mHnelhCbP3taOhr11v351efxqRYQxUY1A6fUge3Pz98phjMjUZf4sGGV38TKldOvpzhv2xkYs5rvQnecP5HVEamz7s+vLn9Pjg1RbFQ7cEod2P78UqIYHqOVta83rvJ3iqGkGuNEVTujLSHZn58kl8+0gSg2qhc4pQ5sf36hAPq8h8dWw25clRxTDO19mn0++/PrU64eZ4EoNqIMp9SB7c8vJWBR95ktUipu6hibyG2B/fndlvXhCUEUG1UBnFIHtj8/J4rhA9fHiZZ8eexziTQD7Z9TtGOKY2ak+/PL83lLjPeKou2ujBnELqlctVOWls/vOje5GU870M9mcA0eOZnM/FnMcRzs2tiJRJ75HW91qPldF+MixIni57vtykc8q2eP3eTKvNVFKLAXJ212uD+/e4tS6mv3ntWl9kpRXL8f4xwv30BbQCtJU+OU5eXb7m4+331bzeVDjflK6Pzd0GK+20xq+VsXriuYm03d76783RKbn2uSGn7Xqf6dkHfzK/O1VrX5OlF0jfjjngcb9LhDSWVInbKqfPFexZSx1DGf4VSYPZbv4lG+5g9djLgLUWoMjY5xNj5zx08pv2Mqf/fXm/mV+Vq7un2dKO4oUg18Dxz/Re2U0vLV2pWIoo+TSzs5AyurCzU/2Wn/N1ZD+J3qP3WRzCAu9bVMMppgiKKGHmOrdsqcAF2ce+++XoQfDq9fs8x0B3h4YfcQhR5CtnHoNY9Mnuy5b3qrQ80vKsVf+zmKn73L214Jsv6w+5bvEm9v+/hx18OrkeW+1rI+IYqN6KqdMiNA6Ww7x8s/LLyNLdrJBBpfTKdmj9LV349RZvLkBHkyd7zVoebHFOkvBA3j532EXnc8CB4N7fi3gMLPoDYqfC2wuv0rRPF2pC5BtVN65+IE65D3bdZ0vzIfAi9++FfRrsYUo+5PJk/+TvGY5VKhPmZRze+Y3J/7NZLffnH0L5Fb+vwbQf7tn919M77WskIhio3oqp2yyil+gngUpJLCRcIXmOwi56/w9uo/m+W7ph/jOY0pUWJBlyhIO/dVzS93gv95+Eh+tgs9z2baFY5g828EVftaw/qDKDaCq3bKYlGsEMSwe7KX+1oUybm9g5w+Dw7vE0ullTrm419/qvldJ/0nQobx232srt7rfa1dNXpfpzNM/jThQX/sSZ8r3bmEdy1r/f1R6/JonJIr35fW+vNjfLTgAC1TRQ9g+7s5/7kV8BR/chMrDpnvPv8emTnGjyglhDqO75xb/1aHhl+U6z/5cwy/SAiTPYfC6kj4WqGlOlqof+8QRQs6voP5NWo1kZsSEDslW75tifttANuP3fhKDD/dZMsxvi1a9AbM8a2NRPyQx8lRU/HveatDzC/M7x/+PoKfvSBGPYjUsaJqOflakdUtkXw7osTeIYq3FLt9Is2ckpxlv1MsKMfT4hdkmaI041d4flU0e2Ebe6F+NT8VfL0xRFHPMJlCG6ek7rLvmiZPGx18Wvwoe8zPNvyYE94UVP6K5k0nvEjmrfwuitP1MESxEW44pQ7sG/nZriJdtPx498Ch7jfy03nMfdYQxftYHlKCUx5wVP8Yw++4gpBd5aY655n3zyXpCWzG8BNk9IEmEMVGlQKn1IEdwc/d6fkVhrZJpH3iwM2s+gbz+0w8+D5wksBTH8HPn/vtn75uqRyYaLmxNuGUOpj9+ZHoZSZH/ONOh89EOSGKCSjvOQRRbFRX/Rt1o4IMSrY7Pytkibu+vfw0aXW9cdUejb5AFA843vYDotioxro36kblGJVsd35ZUeRfUztwgigecLztB0SxUY11b9SNyjEq2f78CrrPpTAgiqWkHhkPotioWvo36kYFGZTsCH7niZbwlcoyENwrmmUp3BNrBL97cj4+FYhiozqAU+rAjuGXeCSn5llD9hVNHY9a6zH8anP5zPgQxUb1AqfUgQU/8NMRkFtDFOXsWEs0ahZPNhD8sojYCODH4mEDIYosHnkgnFLOjizBD/x0BOTWEEU5O9YSjZrFkw0EvywiNgL4sXjYQIgii0ceCKeUsyNL8AM/HQG5NURRzo61RKNm8WQDwS+LiI0AfiweNhCiyOKRB8Ip5ezIEvzAT0dAbg1RlLNjLdGoWTzZQPDLImIjgB+Lhw2EKLJ45IFwSjk7sgQ/8NMRkFtDFOXsWEs0ahZPNhD8sojYCODH4mEDIYosHnkgnFLOjizfye/4muBMW8/qMIit38lPXNxbDSGKt+L8JQan/LGQfHsfv9UstAf3vJjvtgjtcYEJCQW5zfv4yct6tyVE8W6iW3pwSh3Y1/FLLReWXaNRx4izfh0/rjCdwyCKjYDDKXVgh/Czq9yEq2+7fVn2bVpqiwRRrCX2iPgQxUbVMKRRNyrLiGRH8aMu77y4kcB1mc20K2LFxlUEbP3a7vS82/elOIpf31K2ORtEsQ3Xl04UNIIhSHZYo/bdYLt3c3jXSEK3GruI7OEzLtw2tjj58cU4vM/vYfz6FK/pWSCKjfDCKXVgR/Kzd4jT747RlaRi4yprsJov3WlOkbDqsBRbj+RXnMmHRoQoNqoYOKUO7Eh+tgs9h11nKkvFxlV70ZVjkns69V9G8qvP7bMsIIqN6gNOqQM7jB9Ntsz0fGGloO12Ybkr0whNld+H8VPm+wnmEMVGtQCn1IEdwy8SsdNsNFcmZ0sTK6udp/Hd59ls8zac8e1hY/jdXowhCUIUG2GHU+rAjuBnH7aOZotTxy5LttK442Qn2WzDmj9DBJHyN4LfJZeXBdi6myaba/f/BhRQdTUJfuCnI6Czhv/J+UEU5exYSzgliycbCH5ZRGwE8GPxsIEQRRaPPBBOKWdHluAHfjoCcmuIopwda4lGzeLJBoJfFhEbAfxYPGzgQRT//ftn6M8fxGcwaE5vKOAPDOADf8YHrBZ6+fSN3//GZz0BYoh/cgLgJ2dHluAn5xfq396Kw4PypP+2JZxSV//gB346AnLrUP8ginKOJ0s06hOSqgPgV4XrFBn8TkiKD0AUi1HVRYRT1vGKY4NfTKTuN/jV8QpjQxRDGjd+h1PqYIIf+OkIyK0hinJ2rCUaNYsnG/hKftFrfjPt15ItaZsIr+TXBkV1qhDFamRlBnDKMk5Xsd7Hb1tc1i4I4RajXT5uodkRO/q9j9+VJ/Q/DlFsxBxOqQP7On5+xe5QAVPHdFiKrV/Hr7hk7SNCFBsxhlPqwI7hd9y3eZqVq2ZDFHVOMMgaotgI/JhG3agwA5Idwc8vE+Zv9vxvV3y3XqJvML/Pa+F02xpch7fEOoJfy/L0TNvXLZ0TzyneSB5OqYP5CH7xatqHDav8JlZX5dwWnR2xwizeaLmqlKLjEMUiTPWRHtGo67P9GItR/NbvYpbPx3w+HzNvO/K5O8eajau2xWajBWt7wh3Fr2cZW50LotiILJxSB7Y/v232mB6joTtCyv7hTrF046qfIPpuuI6EzLo/P1k+n2gFUWxUK3BKHdju/OykSDT+dxDFkvI8QxApp935leB5SRyIYqOKglPqwHbnF88U+wex7c5+JWXxgriYNR57LDG/OU53fjfnf2RyEMVG9OGUOrAj+K3LNo44TWb+LGatuFN0M83pNTfnAZMtI/jpavw51hDFRnUBp9SBBT/w0xGQW0MU5exYSzRqFk82EPyyiNgI4MfiYQMhiiweeSCcUs6OLMEP/HQE5NYQRTk71hKNmsWTDQS/LCI2AvixeNhAiCKLRx4Ip5SzI0vwAz8dAbk1RFHOjrVEo2bxZAPBL4uIjQB+LB42EKLI4pEHwinl7MgS/MBPR0BuDVGUs2Mt0ahZPNlA8MsiYiOAH4uHDYQosnjkgXBKOTuyBD/w0xGQW0MU5exYSzRqFk82EPyyiNgI4MfiYQMhiiweeSCcUs6OLPvzc6vkaF/JC18VtCt3D1oqpz8/XX0/yRqi2Kg24JQ6sP356UVxX2nbCuFq7MrdxQtK6HjF1v35xTl472+IYqO6g1PqwPbnpxVFt9L2cV1ZOjabAetBDLjT1tX3k6whio1qo3+jblSQQcn25+dF8WuWz2xFZZpmcxQ5BgatqDNF6zEy0VsH9efXukT90ocoNmINp9SB7c/PiSIJob+z27vDtij8xlU2Lq3a/V3MPG9LiM2fPS0djXrr/vzq8/hUC4hio5qBU+rA9ufn7xTDmZGoSxwvHmt/u3L69RTnbTsDY1bzXeiO8yeyOiJ11v351eXvybEhio1qB06pA9ufX0oUw2O0svZs5tOf6zL7O8VQUo1xoqqd0ZaQ7M9Pkstn2kAUG9ULnFIHtj+/UAB93sNjmY2rkmOKob1Ps89nf359ytXjLBDFRpThlDqw/fmlBCzqPrNFSsVNHWMTuS2wP7/bsj48IYhioyqAU+rA9ufnRDF84Po40ZIvj30ukWag/XOKdkxxzIx0f355Pm+J8T5R9Lus0UbltMEQDWw/kLbaKW13rGCQvprHGjxysm3QxPDzEwjeUexn5jmVO97qUPNjypQOcqL4+W678pF/Vc8eu8mVefPNUGDT52x3tD+/G8pS7cs3nDORhPd1Cpp8eHjQH3vG53Y1/3z3bSSXDznv4jYvf0YmbS40Tkm7yLmGlRPFWh7+bmjb8H3Nv3VBojgvP952+06G83535e+WhPWj4cdk788EvY9frS+3q8pQ/54vivHevMQldawdr+KUpU7pXg37uOfdco9zpMqeOuZznQqzx667eJSf8tnT1BgaHcuJu8/g71PK75fC3/72On6XvlnvO9qaf5copkqbgpmK1/mY2iml5aq1s/F5Ucz0ln9kkzOwv+Cab2p+NSf7H8Ydwu9U/6mLZAXsWl+uSJqL+npR3LtrXCkHhKmdUugQVTzWr1lmGle8GpV1XZr547vzbpzNTSScodpz3/RWh5rfOXt/6sgofmHPwvrD7ltOIL3g/D6vL8hVvnxj7fq8UZLP7z6fCu5Al3fvTgk0O6B2SpEolvLYxm/sZAKNL15hCMZ5bBR+DNI58Tb5tVKi8rc61PyuivRHjg/j5/2WXneM3wVn3gg6V0upL58ttUdeLIrbLOF+JdKiuNde7ZTeuS4FK86vhIcXreurdXwWN4Y7JRdK8HeKxyzLnFvN75Txv3VgJL/94uhfIrfo+TeCjrUj8eVjCppfLxXFH7RjA9SguNdW7ZRVoqjh4USr/NrCxD+NKRHTrQt+aCB51mp++VP8r2OM5Ge70PNspoNTZd4I2mtD48t7IqovLxTF8dBKiKudslgUK3iQaJ0eX6oUOTZfqbRSx/IE1fzyp/hfxxjGb/cxSb1X+HLD2nuZKHpoy/6con1ujsYqGkKSJK1xSlsmOyYzm+W72rL6PHxprb9d2PI8TvHpgXf7nCel6LvPv8ceUvHpiu+GCM9jisf4xq02fcNbHRp+ntVf/hzDLxLCZM/hqlbyvnxleffxV4miH6vwmQ4/nzbZInZK60jbenz+zYj9Ob9NlLYB7DyPY3zrPNFbA8e3NtLxF+oKbXmZP+GD8on4m9Bq3+oQ87u7hbw0vRH87DO2hy7zdpGMjqWQ5n05ZdXmmPd1Sv2Fs89toNyRajOnpO7rfqdYkNOnxS/IMkVpxq/w/KJo0QVn5Cuor+Qngn6/EUTxfqY2xTZOSV0Mv+BAScafFr8kzy5OG37l56+PGTy+tD16MvIV1PfxqyfeygKi2IgsnFIH9nX8UhNQqWM6LMXWr+NXXLL2ESGKjRjDKXVgx/A7riBkV7nRFAOiqKE3zBai2Aj9mEbdqDADkh3Bz04U7OO12yTSPkngZlZ9g/l9Xj/47iYPrsNbYh3Br2V5eqbt65bOiYmWG8nDKXUw+/Mj0fs9mpTM/UteU7ONedqbc7IoOHhNAKJ4zUYV0r9Rq7L7OOPu/GxXl7uro0mr642rjgD9M3dXC20cY7f41Z1fi0IMShOi2Ag8nFIHtju/rCi+5zU1It+dn666H2UNUWxUHXBKHdj+/Aq6z9ki/e4QR79h1Z9fFs5rIkAUG1UVnFIHdgS/80RL+EplrjxeEJ/xCuoIfjlCbwmHKDaqKTilDuwYfolHcgpv+Z70mhqRH8NPV+dPsYYoNqoJOKUOLPiBn46A3BqiKGfHWqJRs3iygeCXRcRGAD8WDxsIUWTxyAPhlHJ2ZAl+4KcjILeGKMrZsZZo1CyebCD4ZRGxEcCPxcMGQhRZPPJAOKWcHVmCH/jpCMitIYpydqwlGjWLJxsIfllEbATwY/GwgRBFFo88EE4pZ0eW4Ad+OgJya4iinB1riUbN4skGgl8WERsB/Fg8bCBEkcUjD4RTytmRJfiBn46A3BqiKGfHWqJRs3iygeCXRcRGAD8WDxsIUWTxyAPhlHJ2ZPlOfsfXBI87H+p41Fq/k19tKdvEhyi24frSRt0IhiDZ9zXqbeOqeTHfbTHa4wITAggKk/fxUxT2ZlOI4s1AfXJwSk9C9vk6fqn9WLJrNMrYlFi9jl9JoTrFgSg2Ag2n1IEdwu/7MdMUrr7t9mXZt2mpLRJEsZbYI+JDFBtVw5BG3agsI5IdxY+6vPPi1guzy4Htili5cdX6Ncs8mXm370txFL++pWxzNohiG64YU1RyHdaofTf4u5j5cNdojCnauGobW5wmM9nxRSUIofkwfsL8PskMotioNuCUOrAj+fkFY/0doytJzcZVZLGa7zJH3XEdkxrrkfxq8vnEuBDFRrUCp9SBHcnPdqHn2UyHrm/pxlVhuZVjkmFSld9H8qvM6uOiQxQbVQmcUgd2GD+abJkXus8zn2kyB13kirTbhZEq0whNld+H8VPm+wnmEMVGtQCn1IEdwy8SsdNsNFcmZ0sTK6udp/Hd59ls8zac8e1hY/jdXowhCUIUG2GHU+rAjuBnH7aObg1Txy5Ltm47+tEki51o+QwRRMrfCH6XXF4WYOtummyu3f8bUEDV1ST4gZ+OgM4a/ifnB1GUs2Mt4ZQsnmwg+GURsRHAj8XDBkIUWTzyQDilnB1Zgh/46QjIrSGKcnasJRo1iycbCH5ZRGwE8GPxsIEHUfz375+hP38Qn9uAuR84xyd8Az7wZ3zAaqGXTy+G/jc+6wkQQ/yTEwA/OTuyBD85v1D/9lYcHpQn/bct4ZS6+gc/8NMRkFuH+gdRlHM8WaJRn5BUHQC/KlynyOB3QlJ8AKJYjKouIpyyjlccG/xiInW/wa+OVxgbohjSuPE7nFIHE/zAT0dAbg1RlLNjLdGoWTzZwFfyi17zm2k9xWxJ20R4Jb82KKpThShWIyszgFOWcbqK9T5+2+KydkGI1awr7eznFpp163hflbTN8ffxa8NBkipEUUKtwAZOWQCJifI6fn7F7lABU8eYMt8Z9Dp+dxZemRZEUQnwyhxOeUWm7PgYfsd9m6c53MSqLN+HWBDFA463/IAoNqqpMY26UWEGJDuCn+kMOu8AABc8SURBVF8mzN/s+d+u+G69RN9gfp/Xwum2NbgOb4l1BL+W5emZtq9bOieeU7yRPJxSB/MR/OLVtIs2rvLl3hadHbHCLN5o8ZUg+oQoirDljR7RqPPZfGyMUfzW72KWz8d8Ph8z24ViaWsC+lezcdW22Gy0YG1P2KP49Sxjq3NBFBuRhVPqwPbnt80e221JVyeEhzvF0o2rfoLou+E6EjLr/vxk+XyiFUSxUa3AKXVgu/OzkyLR+N9BFEvK8wxBpJx251eC5yVxIIqNKgpOqQPbnV88U+wfxLY7+5WUxQviYp9RpOcU978S85vjdOd3c/5HJgdRbEQfTqkDO4LfumzjiNNk5s9i1oo7RTfTnF5/cx4w2TKCn67Gn2MNUWxUF3BKHVjwAz8dAbk1RFHOjrVEo2bxZAPBL4uIjQB+LB42EKLI4pEHwinl7MgS/MBPR0BuDVGUs2Mt0ahZPNlA8MsiYiOAH4uHDYQosnjkgXBKOTuyBD/w0xGQW0MU5exYSzRqFk82EPyyiNgI4MfiYQMhiiweeSCcUs6OLMEP/HQE5NYQRTk71hKNmsWTDQS/LCI2AvixeNhAiCKLRx4Ip5SzI0vwAz8dAbk1RFHOjrVEo2bxZAPBL4uIjQB+LB42EKLI4pEHwinl7MiyPz+3So72lbzwVUG7cvegpXL689PV95OsIYqNagNOqQPbn59eFPeVtq0Qrsau3F28oISOV2zdn1+cg/f+hig2qjs4pQ5sf35aUXQrbR/XlaVjsxmwHsSAO21dfT/JGqLYqDb6N+pGBRmUbH9+XhS/ZvnMVlSmaTZHkWNg0Io6U7QeIxO9dVB/fq1L1C99iGIj1nBKHdj+/JwokhD6O7u9O2yLwm9cZePSqt3fxczztoTY/NnT0tGot+7Prz6PT7WAKDaqGTilDmx/fv5OMZwZibrE4cKx+3dXTr+e4rxtZ2DMar4L3XH+RFZHpM66P7+6/D05NkSxUe3AKXVg+/NLiWJ4jFbWns18+nNdZn+nGEqq3eyKFqz1t546JFXW/flVZe/RkSGKjaoHTqkD259fKIA+7+GxzMZVyTHF0N6n2eezP78+5epxFohiI8pwSh3Y/vxSAhZ1n9kipeKmjrGJ3BbYn99tWR+eEESxURXAKXVg+/Nzohg+cH2caMmXxz6XSDPQ/jlFO6Y4Zka6P788n7fEeKEorsEjE9sGQw+k3cwpbTetYPDe70ZHG7rTuBZNADCc/ESBdwj7mXkepeXbG834XTJwovj5brvyEbfq2WM3uTJvzEOBvTxto4D+/G4oSKXP3nDGZBK+DVDg5GOEB/2xZ3z6q/livtvs38i3BjgmLZySdpdzDS4nihunz3ffZnP5UCNf3CbviYyTKM7LL77dnjMRzx/a76L8XVEmfW9X+tmCX+m5/w/x3sev3mdb1VOof88XxXhvXqKS2sS8Fa2KdO92Sif+H/ccXO4xj0tO12JK6ZfPkqbGyujYdfoV6GzUu/nVnv/t8V/HT+CzreroXaKYovBHRHEvesp59kDmS8aORDHTW/4lnpxp/QXf8e11jfqOQt+YxhB+J79IXTwrCpnx2YqUqqK+WxTXr1lmGlfkRsuqeNwWuZlTCh1l7+4mS+i6LvPHd8/deJqbMDgb2LQav73RjN+5OP/LI6P4hT0O6yd723QC6QXn93k9EcX7bLtq83mjMzy/+7xz2MYf7GA4jS/uAY/50swpRaLoHPK6exyM51iC/Aovzlm3yZuV4N//9kYzfo/xkLYZGcbP+ye97hi/C76/BbTuY93WfZIocj6bNLrl4EtF0ZfdN8brq42P2fuzmVN6pyu+EGyzqfsVu5CEPU+6S+3vFI9ZuNeJm/ErLP7bo43kt180D2/y8G8EHXkLffaYiPjXy0WRyu0aY22bFxMrNGzmlFWi+HOuo4CVFILheho7ovS2LvihIZScJx2nGb/06f53R0fys13oeTbToVFm3gjaa0Djs3siqi/vEkVqjKfHSpjGq0KjM27mlMWiWOFcKZFjz5NinjomZ9iMnzxLr7Icxm9voxJ/qPDZhrXxLlHc7gppYsWNRfju832PgtzFuoVT2mcH7VjNbJavG5fx+f3SGoD7BcM71xKM3WzjOJvBKT6Nz3qu63lM8RjfuFWlG7690YKfZ/UXPsfwi4QwdbG9hJ/32UvTmwNeJorUS9vgBW8N3NRjuxXt7U5pHWxbp8+XfX8ucBOxbWDbj+n4yg0/3WTLMb4tuJ3J94urxm8KJeJvkyut3t64nd+ttfv8xEbwo27zscu8XTwP3eg0u7zPpu1aHPXthdJ+0exzCxT3ptndKam7u98pFpSldfyCLHBRuvPjMlMaFl2wc69WliYrifdKfpKCNrCBKDaASkn2dUq6e/YLEZQUqHX8kjzwcfry4/NSFho81rQ9epJ7tbIsXVms9/GTlbOFFUSxBdXuotioEAOTfV2jTk1MpY51Yvo6fp24lJwGolhCSRAHTimAFpiM4XdcgcmuchPkqforRLEa2RMMIIqNamFMo25UmAHJjuBnJwr2cdltcmmfJHAzq77B/D6vXxxwkwfX4S2xjuDXsjw90/Z1S+fERMuN5OGUOpj9+ZHoZR7teslrarYxT3tz1lXEH7SGKDaq9P6NulFBBiXbnZ/t6nJ3dTQ5db1x1RHT9tjYfpd5DO3xqzu/HoXqdA6IYiPQcEod2O78sqL4ntfUiHx3frrqfpQ1RLFRdcApdWD78yvoPmeL9LtDrH/XPJt4VYT+/Kqy9+jIEMVG1QOn1IEdwe880RK+OpkrjxfE61crcyncGT6C3535H5kWRLERfTilDuwYfolHcgpv+Z70mhqRH8NPV+dPsYYoNqoJOKUOLPiBn46A3BqiKGfHWqJRs3iygeCXRcRGAD8WDxsIUWTxyAPhlHJ2ZAl+4KcjILeGKMrZsZZo1CyebCD4ZRGxEcCPxcMGQhRZPPJAOKWcHVmCH/jpCMitIYpydqwlGjWLJxsIfllEbATwY/GwgRBFFo88EE4pZ0eW4Ad+OgJya4iinB1riUbN4skGgl8WERsB/Fg8bCBEkcUjD4RTytmRJfiBn46A3BqiKGfHWqJRs3iygeCXRcRGAD8WDxsIUWTxyAPhlHJ2ZPlOfsfXBOfPYgrfEtTBSli/k1+iIAMOQRQbQYdT6sC+j9+2cdW8mO+2GO1xgQkdj1rr9/GrLWG7+BDFRmzhlDqwr+OX2o8lu0ajjhFn/Tp+XGE6h0EUGwGHU+rADuH3/ZhpClffdvuyiBfQhijqnGCQNUSxEfghjbpRWUYkO4ofdXnnxY0E2uXAdkWs3Lhq/Zplnsy82/elOIpf31K2ORtEsQ3Xl04UNIIhSHZYo/bd4O9i5sNdozGmaOOqbWxxmsxkxxcFhb/BZBi/G/I+OgmIYqMagFPqwI7k5xeM9XeMriQ1G1eRxWq+yxx1x3VMaqxH8qvJ5xPjQhQb1QqcUgd2JD/bhZ5nMx26vqUbV4XlVo5JhklVfh/JrzKrj4sOUWxUJXBKHdhh/GiyZabnCysFbbcLy12ZRmiq/D6MnzLfTzCHKDaqBTilDuwYfpGInWajuTI5W5pYWe08je8+z2abt+GMbw8bw+/2YgxJEKLYCDucUgd2BD/7sPWhy2xM6thlydZtRz+aZLETLZ8hgkj5G8HvksvLAmzdTZPNtft/AwqoupoEP/DTEdBZw//k/CCKcnasJZySxZMNBL8sIjYC+LF42ECIIotHHginlLMjS/ADPx0BuTVEUc6OtUSjZvFkA8Evi4iNAH4sHjbwIIr//v0z9OcP4nMbMPcD5/iEb8AH/owPWC308unF0P/GZz0BYoh/cgLgJ2dHluAn5xfq396Kw4PypP+2JZxSV//gB346AnLrUP8ginKOJ0s06hOSqgPgV4XrFBn8TkiKD0AUi1HVRYRT1vGKY4NfTKTuN/jV8QpjQxRDGjd+h1PqYIIf+OkIyK0hinJ2rCUaNYsnG/hKftFrfjOtp5gtaZsIr+TXBkV1qhDFamRlBnDKMk5Xsd7Hb1tc1i4IsZp1pZ393EKzI3b0ex+/K0/ofxyi2Ig5nFIH9nX8/IrdoQKmjumwFFu/jl9xydpHhCg2Ygyn1IEdw++4b/M0h5tYCcoDURRAG28CUWxUB2MadaPCDEh2BD+/TJi/2fO/XfHdeom+wfw+r4XTbWtwHd4S6wh+LcvTM21ft3ROPKd4I3k4pQ7mI/jFq2kXbVzly70tOjtihVm80eIrQfQJURRhyxs9olHns/nYGKP4rd/FLJ+P+Xw+ZrYLxdLWBPSvZuOqbbHZaMHanrBH8etZxlbngig2Igun1IHtz2+bPbbbkq5OCA93iqUbV/0E0XfDdSRk1v35yfL5RCuIYqNagVPqwHbnZydFovG/gyiWlOcZgkg57c6vBM9L4kAUG1UUnFIHtju/eKbYP4htd/YrKYsXxMU+o0jPKe5/JeY3x+nO7+b8j0wOotiIPpxSB3YEv3XZxhGnycyfxawVd4pupjm9/uY8YLJlBD9djT/HGqLYqC7glDqw4Ad+OgJya4iinB1riUbN4skGgl8WERsB/Fg8bCBEkcUjD4RTytmRJfiBn46A3BqiKGfHWqJRs3iygeCXRcRGAD8WDxsIUWTxyAPhlHJ2ZAl+4KcjILeGKMrZsZZo1CyebCD4ZRGxEcCPxcMGQhRZPPJAOKWcHVmCH/jpCMitIYpydqwlGjWLJxsIfllEbATwY/GwgRBFFo88EE4pZ0eW4Ad+OgJya4iinB1riUbN4skGgl8WERsB/Fg8bCBEkcUjD4RTytmRZX9+bpUc7St54auCduXuQUvl9Oenq+8nWUMUG9UGnFIHtj8/vSjuK21bIVyNXbm7eEEJHa/Yuj+/OAfv/Q1RbFR3cEod2P78tKLoVto+ritLx2YzYD2IAXfauvp+kjVEsVFt9G/UjQoyKNn+/Lwofs3yma2oTNNsjiLHwKAVdaZoPUYmeuug/vxal6hf+hDFRqzhlDqw/fk5USQh9Hd2e3fYFoXfuMrGpVW7v4uZ520Jsfmzp6WjUW/dn199Hp9qAVFsVDNwSh3Y/vz8nWI4MxJ1icOFY/fvrpx+PcV5287AmNV8F7rj/ImsjkiddX9+dfl7cmyIYqPagVPqwPbnlxLF8BitrD2b+fTnusz+TjGUVLvZFS1Y6289dUiqrPvzq8reoyNDFBtVD5xSB7Y/v1AAfd7DY5mNq5JjiqG9T7PPZ39+fcrV4ywQxUaU4ZQ6sP35pQQs6j6zRUrFTR1jE7ktsD+/27I+PCGIYqMqgFPqwPbn50QxfOD6ONGSL499LpFmoP1zinZMccyMdH9+eT5viQFRbFRTcEod2P78nCh+vtuufNNkSCDrhgPd5MpMtpu9E0gdC4l1f36SXD7TxtbdNNnMuf+3V6zeANVdycfM7uWqszs/O6aVZ+FnSX3F28/Mw3gjXl3rzi9XoS8LfyU/v63sdlGxM/kDuPu2Qad+mSi68ZpRjzzk6qqnU9JWnO7upEwU5+X725OYHi1hCrN3IX2X8EN3UAtrwyRXHNSTX3GmXhTxffy24YvPzzeXTr4WV+trRZHGb+YPiUFeCOJC9/jdyynd+7Uf99BwAQvLrbhPmJoooGPtmffi18MXRpzjdfzW5dyWU8c6wHynKFpYNKCdANkBWskpujtlIQsSxUxv+Ve85GMmv+CW37rza1mYAWkP4Xfyl9RFtQJGoU9XpFgU9YWiGDw6MQhaCdnuTlnEYmNn77DzkwG26zzo1bXu/Eoq9UVxRvELeyLWf/YrsB/u2vzOT0Yx74vvQzedub9PFOlq5Me0ioSgM9HtdN2dsohFMG5j88kvb+WccjIjXl3rzm+MmzQ76zB+3g/pHfBY8PZXI9dgTPsKgRPRUW8DeX4vmGiJbsd9BXAzBVfMGx/3UBuf5pe8lIW1S3ep/Z3iEW8fZ+3O70fyf/FtJL/9YnoYu+ZfkzxC3x6L2u8yj6GtfxE7z+/xorg3Un/FsVej2Sxffga1NcRU+h5qKqzJMakomuhCE2buNEZEgcHwRRj35u/d+d2c/9HJjeRnu9DzbKaDqGVek9yB/QTxeDHeIzT/Quw8v8eLIsH2GT59HiqgObfsCTzUbMS7IpSIYkrkWLuUYKaO3VWIXzrd+f1O/b/4NozfPrwl8ZPxgkiV77XFfvfeEB70xx75yTbosTnu6ZQr3TmHd83r7xr7pQVT/RjsdldIV3AbZT2PKR7jG7ek/oBX13ryG+spbc4+hl8khKmL8GVxvSAuwXjjNvZ4adMmINS/x98pnhBAFEm19iubr8zfA+2b6IUD3uvXLNS18W8NfMIHsRPxt3UBe7+6NqZRnzys7sBD3sigTI/gZ3tyUY8tdSwF1Y9Der8MP3tPtvhzW44+s+FBfwyfdQSI4SP+0YVjv1MsyFFt/IIkJVEew68488HM/jbmPeqNDMry+/gVg24eMdS/vRWHB5vn4H96gmc4JXVJ/KotJaBr45ekKYvzDH4VeU/1WlLHKpLURH0dP01hb7YN9Q+ieCNcOKUO5hh+a7BplVsl56spBkRRQ2+YLUSxEfoxjbpRYQYkO4KfHf/ahxq28dV9jMxNIvgG8/u8Xi/RjZNdh7fEOoJfy/L0TNvXLZ0Td4o3kodT6mD250eil1nowj8fe/i8KqcT0d6TBD43/fn5M7//E6LYqA7hlDqw3fnZri53V0fjrdcbVx1L6x8vUXW+j0lW/urOrzJ/T44OUWxUO3BKHdju/LKi+J43Moh8d3666n6UNUSxUXXAKXVg+/Mr6D5ni/S7Q/w9Pp81ahKhP78mxRiSKESxEXY4pQ7sCH7niZbwbaBcebwgjn8jg3I6gl+O0FvCIYqNagpOqQM7hl/ikZzCW74nvZFB5Mfw09X5U6whio1qAk6pAwt+4KcjILeGKMrZsZZo1CyebCD4ZRGxEcCPxcMGQhRZPPJAOKWcHVmCH/jpCMitIYpydqwlGjWLJxsIfllEbATwY/GwgRBFFo88EE4pZ0eW4Ad+OgJya4iinB1riUbN4skGgl8WERsB/Fg8bCBEkcUjD4RTytmRJfiBn46A3BqiKGfHWqJRs3iygeCXRcRGAD8WDxsIUWTxyAPhlHJ2ZAl+4KcjILeGKMrZsZZo1CyebCD4ZRGxEcCPxcMGQhRZPPJAOKWcHVm+k9/xNcH5sCmYjket9Tv51ZayTXyIYhuuL23UjWAIkn1fo942rpoX890WoT0uMCGAoDB5Hz9FYW82hSjeDNQnB6f0JGSfr+OX2o8lu0ajjE2J1ev4lRSqUxyIYiPQcEod2CH8Tpu3uy0F9m1aaosEUawl9oj4EMVG1TCkUTcqy4hkR/GjLq/fV8UuB7YrohNI32B+nxdbGKxfs8yTmXf7vhRH8etbyjZn83VLqWPjqhsZwyl1MIfx893g72LmKRK8w4ZVq1nt77ic29jiRFuk0vhiHN7n9zB+fYrX9CwQxUZ44ZQ6sCP5+QVj/R2jK0nNxlVksZrvMpspFlYdlmLrkfyKM/nQiBDFRhUDp9SBHcnPdqHn2UyHrm/pxlVhuZVjkmFSld9H8qvM6uOiQxQbVQmcUgd2GD+abJkXus8zn2kyB13kirTbhZEq0whNld+H8VPm+wnmEMVGtQCn1IEdwy8SsdNsNFcmZ0sTK6sdR/Td59ksA8YVx/Dj+LwnDKLYqK7glDqwI/jZh62jW8PUscuSrduOfjTJYidaPkMEkfI3gt8ll5cF2Lqb3LwzZp9vrDw4pQ4m+IGfjoDcGqIoZ8daolGzeLKB4JdFxEYAPxYPGwhRZPHIA+GUcnZkCX7gpyMgt4YoytmxlmjULJ5sIPhlEbERwI/FwwayougD8bkNnPsBdHy6iQRwAIf/sQ+Qck7//v0z9AcRhAjCB+ADf90HrBaG95R0AP/kBMBPzo4swQ/8dAR01t7//gMMQobzpyq+ewAAAABJRU5ErkJggg==;" parent="1" vertex="1">
          <mxGeometry x="420" y="119" width="198.41" height="221" as="geometry" />
        </mxCell>
        <mxCell id="yl7WPXbBKKlvr1R5QcPl-8" value="1" style="ellipse;whiteSpace=wrap;html=1;aspect=fixed;" parent="1" vertex="1">
          <mxGeometry x="780" y="150" width="40" height="40" as="geometry" />
        </mxCell>
        <mxCell id="yl7WPXbBKKlvr1R5QcPl-21" value="&lt;span style=&quot;font-size: 19px;&quot;&gt;E2_Pruebas de software&lt;/span&gt;" style="text;html=1;align=center;verticalAlign=middle;whiteSpace=wrap;rounded=0;" parent="1" vertex="1">
          <mxGeometry x="920" y="89" width="230" height="30" as="geometry" />
        </mxCell>
        <mxCell id="yl7WPXbBKKlvr1R5QcPl-22" value="&lt;div&gt;Complejidad ciclomática: aristas(línea)-Nodos(circulo)+2&lt;/div&gt;V(G)=(10-8)+2=4&lt;div&gt;Complejidad ciclomática: Nodos Predicados(circulo con dos salidas)+1&lt;/div&gt;&lt;div&gt;V(G)=(3)+1=4&lt;/div&gt;&lt;div&gt;V(G)=Numero De Regiones = 4&lt;/div&gt;&lt;div&gt;&lt;br&gt;&lt;/div&gt;" style="text;html=1;align=center;verticalAlign=middle;whiteSpace=wrap;rounded=0;" parent="1" vertex="1">
          <mxGeometry x="930" y="490" width="470" height="100" as="geometry" />
        </mxCell>
        <mxCell id="yl7WPXbBKKlvr1R5QcPl-31" style="edgeStyle=orthogonalEdgeStyle;rounded=0;orthogonalLoop=1;jettySize=auto;html=1;exitX=0.5;exitY=1;exitDx=0;exitDy=0;entryX=0.5;entryY=0;entryDx=0;entryDy=0;" parent="1" source="yl7WPXbBKKlvr1R5QcPl-25" target="yl7WPXbBKKlvr1R5QcPl-26" edge="1">
          <mxGeometry relative="1" as="geometry" />
        </mxCell>
        <mxCell id="yl7WPXbBKKlvr1R5QcPl-25" value="2" style="ellipse;whiteSpace=wrap;html=1;aspect=fixed;" parent="1" vertex="1">
          <mxGeometry x="780" y="280" width="40" height="40" as="geometry" />
        </mxCell>
        <mxCell id="yl7WPXbBKKlvr1R5QcPl-26" value="3" style="ellipse;whiteSpace=wrap;html=1;aspect=fixed;" parent="1" vertex="1">
          <mxGeometry x="780" y="360" width="40" height="40" as="geometry" />
        </mxCell>
        <mxCell id="90rEh2KffNQOqLEjoO5k-5" style="edgeStyle=orthogonalEdgeStyle;rounded=0;orthogonalLoop=1;jettySize=auto;html=1;exitX=0;exitY=0.5;exitDx=0;exitDy=0;entryX=1;entryY=0.5;entryDx=0;entryDy=0;" parent="1" source="yl7WPXbBKKlvr1R5QcPl-27" target="yl7WPXbBKKlvr1R5QcPl-26" edge="1">
          <mxGeometry relative="1" as="geometry" />
        </mxCell>
        <mxCell id="yl7WPXbBKKlvr1R5QcPl-27" value="4" style="ellipse;whiteSpace=wrap;html=1;aspect=fixed;" parent="1" vertex="1">
          <mxGeometry x="940" y="360" width="40" height="40" as="geometry" />
        </mxCell>
        <mxCell id="yl7WPXbBKKlvr1R5QcPl-30" value="" style="endArrow=classic;html=1;rounded=0;exitX=1;exitY=0.5;exitDx=0;exitDy=0;entryX=0.284;entryY=-0.015;entryDx=0;entryDy=0;entryPerimeter=0;" parent="1" target="yl7WPXbBKKlvr1R5QcPl-27" edge="1">
          <mxGeometry width="50" height="50" relative="1" as="geometry">
            <mxPoint x="820" y="300" as="sourcePoint" />
            <mxPoint x="950" y="430" as="targetPoint" />
          </mxGeometry>
        </mxCell>
        <mxCell id="yl7WPXbBKKlvr1R5QcPl-34" value="7" style="ellipse;whiteSpace=wrap;html=1;aspect=fixed;" parent="1" vertex="1">
          <mxGeometry x="940" y="450" width="40" height="40" as="geometry" />
        </mxCell>
        <mxCell id="yl7WPXbBKKlvr1R5QcPl-36" value="" style="endArrow=classic;html=1;rounded=0;exitX=0.5;exitY=1;exitDx=0;exitDy=0;entryX=0.5;entryY=0;entryDx=0;entryDy=0;" parent="1" source="yl7WPXbBKKlvr1R5QcPl-27" target="yl7WPXbBKKlvr1R5QcPl-34" edge="1">
          <mxGeometry width="50" height="50" relative="1" as="geometry">
            <mxPoint x="830" y="310" as="sourcePoint" />
            <mxPoint x="961" y="369" as="targetPoint" />
          </mxGeometry>
        </mxCell>
        <mxCell id="yl7WPXbBKKlvr1R5QcPl-40" value="8" style="ellipse;whiteSpace=wrap;html=1;aspect=fixed;" parent="1" vertex="1">
          <mxGeometry x="840" y="560" width="40" height="40" as="geometry" />
        </mxCell>
        <mxCell id="yl7WPXbBKKlvr1R5QcPl-46" value="" style="endArrow=classic;html=1;rounded=0;exitX=0.5;exitY=1;exitDx=0;exitDy=0;entryX=0.5;entryY=0;entryDx=0;entryDy=0;" parent="1" source="yl7WPXbBKKlvr1R5QcPl-8" target="yl7WPXbBKKlvr1R5QcPl-25" edge="1">
          <mxGeometry width="50" height="50" relative="1" as="geometry">
            <mxPoint x="880" y="180" as="sourcePoint" />
            <mxPoint x="960" y="370" as="targetPoint" />
          </mxGeometry>
        </mxCell>
        <mxCell id="90rEh2KffNQOqLEjoO5k-1" value="5" style="ellipse;whiteSpace=wrap;html=1;aspect=fixed;" parent="1" vertex="1">
          <mxGeometry x="750" y="440" width="40" height="40" as="geometry" />
        </mxCell>
        <mxCell id="90rEh2KffNQOqLEjoO5k-2" value="6" style="ellipse;whiteSpace=wrap;html=1;aspect=fixed;" parent="1" vertex="1">
          <mxGeometry x="820" y="440" width="40" height="40" as="geometry" />
        </mxCell>
        <mxCell id="90rEh2KffNQOqLEjoO5k-3" value="" style="endArrow=classic;html=1;rounded=0;entryX=0.5;entryY=0;entryDx=0;entryDy=0;" parent="1" target="90rEh2KffNQOqLEjoO5k-2" edge="1">
          <mxGeometry width="50" height="50" relative="1" as="geometry">
            <mxPoint x="800" y="400" as="sourcePoint" />
            <mxPoint x="970" y="460" as="targetPoint" />
          </mxGeometry>
        </mxCell>
        <mxCell id="90rEh2KffNQOqLEjoO5k-4" value="" style="endArrow=classic;html=1;rounded=0;exitX=0.5;exitY=1;exitDx=0;exitDy=0;entryX=0.5;entryY=0;entryDx=0;entryDy=0;" parent="1" target="90rEh2KffNQOqLEjoO5k-1" edge="1">
          <mxGeometry width="50" height="50" relative="1" as="geometry">
            <mxPoint x="799.66" y="400" as="sourcePoint" />
            <mxPoint x="799.66" y="450" as="targetPoint" />
          </mxGeometry>
        </mxCell>
        <mxCell id="90rEh2KffNQOqLEjoO5k-7" value="" style="endArrow=classic;html=1;rounded=0;exitX=0.5;exitY=1;exitDx=0;exitDy=0;" parent="1" edge="1">
          <mxGeometry width="50" height="50" relative="1" as="geometry">
            <mxPoint x="959.66" y="490" as="sourcePoint" />
            <mxPoint x="860" y="560" as="targetPoint" />
          </mxGeometry>
        </mxCell>
        <mxCell id="90rEh2KffNQOqLEjoO5k-8" value="" style="endArrow=classic;html=1;rounded=0;exitX=0.5;exitY=1;exitDx=0;exitDy=0;entryX=0.5;entryY=0;entryDx=0;entryDy=0;" parent="1" target="yl7WPXbBKKlvr1R5QcPl-40" edge="1">
          <mxGeometry width="50" height="50" relative="1" as="geometry">
            <mxPoint x="840" y="480" as="sourcePoint" />
            <mxPoint x="840" y="530" as="targetPoint" />
          </mxGeometry>
        </mxCell>
        <mxCell id="90rEh2KffNQOqLEjoO5k-9" value="" style="endArrow=classic;html=1;rounded=0;exitX=0.5;exitY=1;exitDx=0;exitDy=0;entryX=0.5;entryY=0;entryDx=0;entryDy=0;" parent="1" target="yl7WPXbBKKlvr1R5QcPl-40" edge="1">
          <mxGeometry width="50" height="50" relative="1" as="geometry">
            <mxPoint x="769.66" y="480" as="sourcePoint" />
            <mxPoint x="769.66" y="530" as="targetPoint" />
          </mxGeometry>
        </mxCell>
        <mxCell id="90rEh2KffNQOqLEjoO5k-10" value="F" style="text;html=1;align=center;verticalAlign=middle;resizable=0;points=[];autosize=1;strokeColor=none;fillColor=none;" parent="1" vertex="1">
          <mxGeometry x="760" y="330" width="30" height="30" as="geometry" />
        </mxCell>
        <mxCell id="90rEh2KffNQOqLEjoO5k-11" value="T" style="text;html=1;align=center;verticalAlign=middle;resizable=0;points=[];autosize=1;strokeColor=none;fillColor=none;" parent="1" vertex="1">
          <mxGeometry x="870" y="330" width="30" height="30" as="geometry" />
        </mxCell>
        <mxCell id="90rEh2KffNQOqLEjoO5k-12" value="T" style="text;html=1;align=center;verticalAlign=middle;resizable=0;points=[];autosize=1;strokeColor=none;fillColor=none;" parent="1" vertex="1">
          <mxGeometry x="820" y="400" width="30" height="30" as="geometry" />
        </mxCell>
        <mxCell id="90rEh2KffNQOqLEjoO5k-13" value="F" style="text;html=1;align=center;verticalAlign=middle;resizable=0;points=[];autosize=1;strokeColor=none;fillColor=none;" parent="1" vertex="1">
          <mxGeometry x="750" y="400" width="30" height="30" as="geometry" />
        </mxCell>
        <mxCell id="90rEh2KffNQOqLEjoO5k-14" value="F" style="text;html=1;align=center;verticalAlign=middle;resizable=0;points=[];autosize=1;strokeColor=none;fillColor=none;" parent="1" vertex="1">
          <mxGeometry x="900" y="380" width="30" height="30" as="geometry" />
        </mxCell>
        <mxCell id="90rEh2KffNQOqLEjoO5k-15" value="T" style="text;html=1;align=center;verticalAlign=middle;resizable=0;points=[];autosize=1;strokeColor=none;fillColor=none;" parent="1" vertex="1">
          <mxGeometry x="930" y="405" width="30" height="30" as="geometry" />
        </mxCell>
        <mxCell id="90rEh2KffNQOqLEjoO5k-16" value="" style="shape=image;verticalLabelPosition=bottom;labelBackgroundColor=default;verticalAlign=top;aspect=fixed;imageAspect=0;image=data:image/png,iVBORw0KGgoAAAANSUhEUgAAAl8AAAFXCAYAAACcBCvtAAAAAXNSR0IArs4c6QAAAARnQU1BAACxjwv8YQUAAAAJcEhZcwAADsMAAA7DAcdvqGQAAD8hSURBVHhe7d2/eqLM28DxO++xSIo8OQI8At0m1bbpsIxNupTbpcFSu7RbpVk4gngE/lJEzsV3ZhgUEBX/4aDfz3WxawgDyMDMzcxA7hbK//73P/nvv/8EbiJ/3Eb+uI38AeCaOzUt0o8AAAA4t/+z/wMAAKABy5avxYIGMFfd3d2RPw4jf9xG/gBwDS1fAAAADSL4AgAAaBDBFwAAQIMIvgAAABpE8AUAANAggi8AAIAGNRN8JbGMBl3p3t2Zx77N1O3KYBRLYhdpWjxS+zMYXWz7zogHqzxZmwYS28XcFMtA7+fA7b08iU35pK+j+DJncaKuIffPEdyqRF0z3W7+WhnI6MBrJR7odRTP9Xp1yA2VUdjL+YOvZCRdry/DifochBJFkZpCCR9FJsO+eOqCaP60VJfL91SmM5G5nXPr/FDnS3l6Fc/+fh9JcvMh7dkU8ymUQKYy6XvSHXHMgYy+MfD6ptKRcHmtTGSorpXTxEHUITiefvvg4jyiRWDWHyyiuZ2VFwVm2xJEdgaqnC9/FJsHJ8uCU69vK3t+Xfj8OWv+ZDYe1/ki9O01Zuc0ZR76F9nuvhrJHzjEXhN+qD7l2fJibf5uUXDoNeZGGQX3nLXlKxn9Ufca6pSNxtLrpPMKeq+iLhKRySddF8BBOvLrt76IZvJD4xegzHWjlMjjvbo68nryqlvB3n7Zn4HLOWPwlci/v/oKCOSpl85Z15GXr4W6LVXBmZ2jJfGo2Fd/tz6uZTXeJDHjybJll33wSSyD3Dq6pbZm04ffXfXXb15fxbi0ZFRYtxlLcOUVX53jY46paepX8XTf/t4emGX6LF9y+VEnv7VkNFiNG9Td1RuOed31XatNx7pq3Eo2JmWt27J0jne3HG+18M5r5tbzBE3y5MHc1P9ZG+PV6fWk1+sUgrJDz81yHaJRRqGuMwZf9u7Df9hv3JAq9J/7Q3XXEsl8PjdTFOjKvKqvfiZ/us/y/fCWjoEJfZlOhmYcWdf7I/I7HRsTqvTTSb8ifdlE+vn1BXp9fXnOV0x64LM3VEuGEpn9U+vXYwm8uxrrd9fsJ5Y4Lk1rZcH249Mbq+OhM0sJojTvPl7yxZxK//xHZo/q2L3as6Jufqvj7umBg3rcoF7m7UH+PPfVGkv2On+uQXaT8yj3hdv8imNdlzqGXXWOz5bHMFJrV+vzyoGbtroGzbE212BfvPzBvrk8wWWpm/qPUNSZaMZ4LR/uqoptTnluUkZhT2caE3F4/7o6Ge2nTLouP1zNT8eb+IvcLCU3/qUwfz29OtkL+1a9vnJ//aaxBJvmn8Z58sfKxt1VTLuPd8V4hg1jk6rTp3bn94bjOw8X6gZ3bTxFnfPnlPT3PTt7XP0wWqjA107hQsW/dv7qu2061uacXxu3svvaSK0vt307xflN50leI/kDB80X6mZw4dtrxFwnwXoZXefcrLp2iteJ22UU3NPMqyb21Omkt/D6qbnEtML8qPvrKuW7fUu3tlXMn37vei5lw/qWNo0l6Mj9o/pv+t3aJ19U2aBrqML0VWi10nYdn12q0+/O7w3HvXOv1riu/vnTPtNhX/r9bNItsL7Ku/kJ8yqWT3Wr7qtjrZsKzDE0k5iunPVraH07vSdVjchU8otec57AVR3p9MbyZYa26NalrGek2FV4mnOTMgr7OWPwZfvddwYkacG+lBur5T0/y/vnp3x+/rW/dIP/sN6N45kvy6Dnve2R31XHfU0Lzp9jrAXJX18yrnya5Tim69DzclNfhrpymf2sjefa6crzBG3Qkd74S+ahvoP4K/+yk/jE5yZlFOo6Y/CVPYU1kc+N/diJjLq6YM/GkqifTR+57jO3Fct4rKa3yruHS6lqQZuntz1Htgzdmv3ye3fLZTvOnzbww3kxyFsGey/FO/udyBM0zAxmrx7A3km7KGyr7OnPTcoo1HXWbsfOy5voDohJf8NTH/F7ejcdPNmnHdOmW//3r+pXU1ycbc1bu/tP5Ee3Ge/7cME18h5EH6J66ub3puNe5vr546Ck3N2RHuvp33/rx1p3kdiPK+utvbHut1RnQdoIQJ6gYfq8m05l8rkeCCVpQX2Gc5MyCvs585ivnozn+qkT/aRU+qcY0ifpRumj6fq1BH4g0Th70YQt+IfvKljT3ZG6P1w/8p6+L+zyOvLypsLJaTpuIN3H2LTe6SAyeNu3VcAdlU87qoh5e0Gy2eRzlOaf/bla3fxeHffngX5qabVcZeDg7PlzWelYrIn8ya5D/Vj881DUqZtjnxQzxzo7xxPzp1TuPK/45K8xleFz9jRZulz6YvE3SYehkSdoWOdFdHGh7vrNK1JGtjzTdY6XFtR7n5vpsJKJfKrzv7pMo4zC/s7/NNA8WoSBnz71kU2+vwjCaO3JE71s9gSXntKnU9InSdaftCo/ubXpqcP0SZL8EyflJ7qq17eezpivnjJLv0tQ+RTfqehtnM2Wpx3zx2Of4zMPg2VeZ3lWnV6pmd9afr36mEdzm9/57e+xvlPR2zm7DU+RVtl4rNVxiNR1WDw2aR6uHZvyOS76ei3nh93O2jEvXdcXyJM8vU3cnvKTjpV1Tu1zU82z1042v+qpYFfLKLjnzp4AZjwH3KQHZpI/7iJ/3Eb+AHCNk6+aAAAAuFYEXwAAAA0i+AIAAGgQwRcAAECDlgPuAQAAcH487dgCPK3lNvLHbeQPANfQ7QgAANAggi8AAIAGEXwBAAA0iOALAACgQQRfAAAADSL4AgAAaBDBF5yRxCMZdO/MqwHM1B3IKE7sbwEAuA4EX3BDPBCvP5SJBBJGkURRqD5NZNj3ZBDbZQAAuAK8ZLUFrv8lkYmMup4Mp4FEi7H07FwVkcngri8TP5T514t07FzX8BJPt5E/AFxDyxccMJfvqfoveMoFXlpPngL13/RbLQEAwHUg+MLh4oFpVSh0Cxbm6Rat3Biu8tQdqSW0nowXC1mMi6GXTv8zU//5D+KlMwAAaD26HVtAByqu5k88uJP+LOsWtN2Hj9EykErieEurlSe93pbOxGQkXW8oEs7l68XVTke6tVxH/gBwDcFXC7hdeaTjsmYqQPqQZ/GGj6VxW4faNA7MPVTubiN/ALiG4KsFnK88dFdjf2I++oVWqkTi0bt8ftsfyx6e5PWlVzGQPgu8fAnnX+Jwo5dB5e428geAaxjzheP1nkSPixf171spUvr5nslstmH6/rFL5bUr8AIAYF+0fLWA63fu6bivwLyXa5Ib77W/WAbdvkxaFnjRsuI28geAawi+WsDpysN0Oc7SYEnSAfKP0UL2j7+ywCuQaD6WbePwXUPl7jbyB4BrCL5awN3Kw74ENVi1dplWsMmeg+QTtR5PrUd8CcI3ebq383M8rycdRwMyKne3kT8AXEPw1QKuVh7VgdZ6QLZTbsD+JsFBrWnNoHJ3G/kDwDUEXy1A5eE28sdt5A8A1/C0IwAAQIMIvgAAABpE8AUAANAggi8AAIAGEXwBAAA0iOALAACgQQRfAAAADSL4AgAAaBDBFwAAQIMIvgAAABpE8AUAANAggi8AAIAGnTf4igfmj9p2R4mdsVsSj2TQvTPpzNQdyCiumT6JD0ubjKSbpSlNg9gus41Kv7bd+l8Z2rF5gO3stbhp2nqNHpMWLZHISJdh5mLLf7a2ngMDyZaMB8WfXRaPutIdjNS3vVY78vRUKLsPcqbgKzEn9l1/Yn+uSV3gXn8oEwkkjCKJolB9msiw7+3ORH0CeP3D0hq+BKFOV5xePfvrTcx2K/bZ6xKA7e3APEBtfsXx1dPbr45dYrNj0uI6VJ8Dr9K+S1QVzt9Tmc5E5nYOjkHZfYiFnk4mCsz69OQHwcLX/4dz+8tt5ovQ1+mCRWTnpKJFoNfnh2qJzaKgKq1d54606T77i1q7WVK9XbvPQXHuoU6aP646Ig8urRX5Y6/Lg07JY9I64Caun6PZstJkcvq5UG7XPAeqy0Ncxo483cLkY90LvsVl9yWdoeXrwUTA8/lCvl4f7Lw65vpGRF23T9JLZ1g9eVKRjEy/t9yhxPKpG9nW0u7jUe4PvYH3H0p3fp48qKgT+zoiDwAcoSP3j7oo0yVZ+hlt12SeUnbv6/TBV+9Fxi896eydET0Zq5vUxbgcPiXyM1P/rQU4eZvS2oDu8V6depslZgOH8XSUtRYYpttNT/prlaRjCLrrYyYS3eV8p7td7TIVYwHMlEt7TB4AOJ73EMjv+9znM3Unp+WDHhemyoeB/pyWB8vxV6Wxu92KcSN6bHC3ULZ0ZZAf32vHqBWSluaZ8Wn5MugE+6WHoRw0/reUrqvSrQ9XLu6X/s56H7atvok8pew+3Pma5efhHt2OG+y9jvliHkWLKAoXgely3N0EPg99s1wYpt2k6THxF0FUZ5vRcjvhntut62z5cyRz3Naam4tdvWlebJpWCY/Lg8tyNX8KbLeRH1bnw9ajfExaB7Qif1y37RzInQB1uh2zcsP31fWdrc/MS8tNX1/3dn5o1lfq7szqBDVzPlfnn5qiIE2fX87sy3LISb4LLlX8/Qn2yx4jvc7I7JdaTm+zvFzZ2vexdUrpOKbHVpW3+prTy6nt7Vc3bqOOof6+dsrK8Py8TVtpc9l9Seo4pQfrLI4OvuwFs9cYAjveKjsB1MWya+vZSe0H2clmA6ia+55dBNmxPPWJd7b8OVp6rAvH6MA8PzYPLsnd/MnJKobKacf1dUxaB+j9xJG2nAP56zO9jusFX8XLOlfWF+ZXlDGKDj6KqpZbzUu3WdyvTcHXYftVvOlc2TR/pbwfqQ3rL0dxOgizH49iy+2q/E2nzWO62lx2X5I6PulBOoujgq/spN+c6bssg6Kttx2b5C46O6dKesdVDLbm6uQz3/ug7a47W/6cwPYCTN1NqbuhINgw7QyM6+XBpbmcP0u28jzolDwmrQNakT+uq3kO1A++ystsClLSIGRTGZ62AKUVfmVdkwsay7+rLrsO3a/N+7n9mNggS6VLW72yybY+5daX7p9aVrcyqfqm9E1PyuzzhmNeTzvK7kty9CWreqyQJ8OpL+H8S14O7Kbu9Mbyoc4Amfw54LUPHfn1W6WVmfxsSpuM5M9kqq7LDxn3VjvZ6b2Y7U4P2m679PTTENO/8s98z0T+/dWD3X5LNrTg53sms9mG6fsnXWijGnkA4Lbkxl55z8/y/vkpn59/7S9Lek+iSiglkLdDK5I9VI3zNeOCd5Rh00lfPM/LTX1V/6lfzH6WY7o6L1+ibuzlUa1Lv0LJM2PDRo6+U42yexcHgy99Ye0ZeFUNrrQ65hGPqXxvelRSv6dLn8RHREmPFY95pNu9Ab1XCf2pDN/1wbcPGvz+ZR9w6MjL+Eu+vjZM45d0uRPkAYBboG7Mn/X7HEOJ5gtZqHJkPB6r6U0FJevigVrWDyTwJ9KvqiBObFpR0czTp762Pg3oh3PdPLs+fdky0tI39mP1nfXvdCAm06H0Kx56agxl98EuGHwl6gam/KSGDrzUxTIN1IW1LfAqpbV3N5PP9YsrNu+g8GV1Q1JK2/klOkCf/v1X2pf1Vpzqfd623Vtg73AmnxLHn6pQ9Pd/omavPMB5VZ/jgBtWN3i5zoZq6qa8P1E38R8qOPsIxZ/0a75w+xD29UK5lqrUrqf103TrZZ+SqGvRftTridV1mX8CUgdib7ri2/oapsN4r5FEdd6QStl9FNOPfErLJ9zs0w+rgXirfuqs/3rZr6yf8DD7snqipDzNbeK1tEqxPzxdPrRPwFQtV+jPzsYFLNOuBgzmF6u3XZ3WzssnPoJel9PygzXXxkbUVDMPXOR8/mg1x+xsuz5cz4dNWpE/rrPnwK4nXrPzJwg3j0lKlzl0bFVuLFE2Pipf5i7Hda2PwSqPvTrtmC9lWYap+i4/bkvN23rtZGOjdT1pv1P2lOXq+2T7kfveKt3aPlxCi8vuS1LHJz1Ip5NdHFVT7sRWGWYq7OykzjJwy7TMyHJaywywz29bPzKcGwhvbEy7OmHStPpEqpu2xnaPoNfptlWerw143UOtPHCQ+/mjqHNU7+fOwrDqHK+b1lGtyB/X2XOgesoHLKossDe9m8qCo4Oc5asY0kkHLSoUMemzbVYPci+u6+TBl6YDonIZVn0YisrpTCNEKaEO5rIGBTul3/3y2lp2X9KdPVi6dNL/NUq/5O7Pw1y+DhgI2ca0h9Lj2S6RP/vQx8U08R/xgERbtSF/9nGJc/ycri1/ALTfxcZ86bcJ92eHPYHSxrTXLfvzTm83F3hdG85xADi/i7V86UG90usVnuSoq41pj+H0nbv+E0LvngxV8BVEC1n7C0834JpaVi51jp8TLV8AXHPRbkfU427lEcvgTj/2LeKH19NNtS8qd7eRPwBcQ/DVAlQebiN/3Eb+AHCNo2+4BwAAuE4EXwAAAA0i+AIAAGgQwRcAAECDCL4AAAAaRPAFAADQIIIvAACABhF8AQAANIjgC+5IYhl078xLMc3UHcgoTuwvAQC4DgRfcEMykq6n/1RRIGEUSRSF6tNEhn1PBrFdBgCAK8CfF2qBW/jzKPHgTvqTQKLFWFZ/mzuRUdeToYQy/3px9o898+dr3Eb+AHANLV9wQCyf+q9zB0+5wAsAgOtE8IUjxDLIxmcVpq6MzFAt3XJV9Xs7dUdqCa0n48VCFuNy6DWX76n67/He2VYvAAD2RbdjC+hAxdn8SRIbQGlzeX/W47ZW3YRJHKu5m3jS65XDKrW+eK7S/Mjnn6EZAxZ95bsi3eN0/oD8AeAcgq8WaEvlkYy64g0fS+O29qVb03QAp/kShG/y+tJzuuWLyt1t5A8A1xB8tUArKg/ztOJQHqOFrHoPE4lH7/L5bX8se3jaGlgl8UCe+xOZBlFFl6Q7qNzdRv4AcA3BVwu4X3nY1qq1ICmR0eBZ/s7sj2WPv+VjvP0pxrQ1TSScf8mLo81fVO5uI38AuIbgqwVcrzyqXxOxh3ggd/2JBIVWM2vb7xxB5e428geAa3jaEcdRwVF/4ks4P2KcV+9JAvXf5HP9baqxeQeFLw9e+jMAAG1Hy1cLOHvnbsd5SRDJx2sxOup09usjTLsXp+L7gfx+e5J7Ne/n848MJ1OzfsZ84VDkDwDXEHy1gLOVh+0SrHJIN6EZYP9nIlP9bi/N9yV4+1DrcflZRyp315E/AFxD8NUCVB5uI3/cRv4AcA1jvgAAABpE8AUAANAggi8AAIAGEXwBAAA0aDngHgAAAOfH044twNNabiN/3Eb+AHAN3Y4AAAANIvgCAABoEMEXAABAgwi+AAAAGkTwBQAA0CCCLwAAgAYRfMEZSTySQffOvBrATN2BjOLE/hYAgOtA8AU3xAPx+kOZSCBhFEkUherTRIZ9TwaxXQYAgCvAS1Zb4PpfEpnIqOvJcBpItBhLz85VEZkM7voy8UOZf71Ix851DS/xdBv5A8A1tHzBAXP5nqr/gqdc4KX15ClQ/02/1RIAAFwHgi8cLh6YVoVCt2Bhnm7Ryo3hKk/dkVpC68l4sZDFuBh66fQ/M/Wf/yBeOgMAgNaj27EFdKDiav7Egzvpz7JuQdt9+BgtA6kkjre0WnnS623pTExG0vWGIuFcvl5c7XSkW8t15A8A1xB8tYDblUc6LmumAqQPeRZv+Fgat3WoTePA3EPl7jbyB4BrCL5awPnKQ3c19ifmo19opUokHr3L57f9sezhSV5fehUD6bPAy5dw/iUON3oZVO5uI38AuIYxXzhe70n0uHhR/76VIqWf75nMZhum7x+7VF67Ai8AAPZFy1cLuH7nno77Csx7uSa58V77i2XQ7cukZYEXLStuI38AuIbgqwWcrjxMl+MsDZYkHSD/GC1k//grC7wCieZj2TYO3zVU7m4jfwC4huCrBdytPOxLUINVa5dpBZvsOUg+Uevx1HrElyB8k6d7Oz/H83rScTQgo3J3G/kDwDUEXy3gauVRHWitB2Q75QbsbxIc1JrWDCp3t5E/AFxD8NUCVB5uI3/cRv4AcA1POwIAADSI4AsAAKBBBF8AAAANIvgCAABoEMEXAABAgwi+AAAAGkTwBQAA0CCCLwAAgAYRfAEAADSI4AsAAKBBBF8AAAANIvgCAABo0HmDr3hg/qhtd5TYGbsl8UgG3TuTzkzdgYzimumT+Ki0o0F3lfauK4O6+51U7HP9rwxNHcPu8tgXp0Fsl8Hh7LW4aaq+RhMZ5c/rqqk7Ukuh/Wxem4st/9naev4MJFsyHhR/dlk86kp3cM3n7448PaVj6s8bdabgKzEn9l1/Yn+uSV3gXn8oEwkkjCKJolB9msiw7+2ugHXl7fUPS6uKioFKO1S7G4Q6bSRhIDIZersDR7Pdin32ugRge/OXxz8/vXr21ziaX3F89fT2q2OXyOvIr7fccqFv5hbW8fZLLYVbUX3+vEr7LlFVOH9PZToTmds5ONQR9eeNW+jpZKLArE9PfhAsVHG98MO5/eU284Uq21W6YBHZOaloofJxoa56tcRmUVCV1q6zVlp/Ud7N6nUWVS9j9znYlrK+k+aPq8x5s54HbdCK/LHX5VGn5CnWcQE3cf0czZaVJnPTz4Vyu2be1ykz0ZQdebqFyceaF/ox9ectO0PL14OJfufzhXy9Pth5dcz1jYjKqyfppTOsnjypSEam31vuUGL51I1sa2nryNK+yUvpFr43XqhSe7x7nf5D6c7Pk4e0kQB7eZR7mlGAC+jI/aMuynRJln5G2zWRpyeoP2/U6YOv3ouMX3rS2bsS7clY3aQuxuWsSuRnpv5bC3DyNqW1Ad3j/eaukeRH0tUf1nDu6ShrLTBMt3voOtshSccQVIz5SXSX853udrXLFMaH5KZc2sRkMoBL8R4C+X2f+1zZFX28tHzQ48JU+ZAbJ7Qcf1Uau9utGDeixwZ3C2VLVwb58b12jFohaWmeGZ+WL4NOsF96GMpB439L6boq3fpw5eJ+6e+s92Hb6s+ep0fWn7fufM3y83CPbscN9l7HfDGPokUUhYvAdDnuaPZcNqfPF1GYdpNmx8QPIrW2XaLldsJ9truHs+XPkeahr/at3Nxc7OpN82LTtEpo1qWPYSEPfJMvrnM1fwrsee6H1flQ6yjT7Xi7tp0/uZOnTldTVm74vrq+s/WZeWm56evr3s4PzfpK51xWJ+jyea7OXTVFQZo+v5zZl+WQk3wXXKr4+xPslz1Gep2R2S+1nN5mebmyte9j65TScVx27+nrVS+ntrdf3biNOob6+9opK8Pz8yq3siwTDq0/b5c6RumBOoujgy97wezVb2zHW5kpvVi2bj27YPSUu+hCezHX6ffOLoLlevR2Txg06HW6KT3Whfw9MM+zgsUPsgveBrEHrKtp7uZPTv48X5tqXl/Lgtb+3BJ6n3GkLedP/vrcJ/gqXta5sr4wv6KMUXTwUVS13Gpeus2KYKYi+Dpsv4o3nSub5q+U9yO1Yf3li08HYfbjUWy5XZW/6bQ+pss4Qf15q9TxSQ/cWRwVfGUn/YZMr2EZFG07AezJo+/oyptZ3mls2X56x1UMtuYqcDDf+0Qn3tny5wS2F2Dp3VAQbJh2BcbLc6BmcHAhLufP0ikCp1Os4wJakT+uq5n39YOv8jKbgpQ0CNlUhqctQOnNWmVdY/dbT+XfVZddh+7X5v3cfkxskKXSpa1e2WRbn3LrS/dPLWt6WU4UdG1g9nnDMS84sv68ZY6+ZFWPFfJkOPUlnH+tDeSrq9Mby4c6g2XyZ3O/u/cgagl5vO+tjQvrpSP95XvTSP9kJH8mU3Vdfsi4t0rd6b2Y7U63bfdKmGM0/Sv/zPdM5N9fPdjtt2RDC36+ZzKbbZi+f9KFNurIr986d2byc+XHEUBNubFX3vOzvH9+yufnX/vLkt6T6FJcBT/ydmhFsoeqsU9mXPCOMmw66Yvnebmpr+o/9YvZz3JMV+flS9SNvTyqdelXKHlmbNhIdr5J6ZyOqT9vnIPBl76w9gy8qgZXWh3ziMeWE6Bzr05mFZ99Hn4KP1Y8opdu9wb0XiX0pzJ818fPPmjwO3v3U0dexl/y9bVhGr+ky+l3pemChHfCANhK3Zg/6/c5hhLNF7JQ5ch4PFbTmynHy+KBWtYPJPAn0q+qIE5sWlHRzNOnvrY+ye2Hc908uz592TLS0jf2Y/Wd9e90ICbTofQv+aLjE9Sft+qCwVeibmDKT2rowEtdLNNAXVjbAq9SWnt3U3UCxOY5WF9WNyTl7dpXWUw+1+4g0rSBPC0foqza523bvQW2dUofv/hTFYr+/k/UdH6JXsX077/SsV1vScO5VZ/jgBtWN3i5zoZq6qa8P1E38R8qOPsIxZ/0a7xw+1D29UK5lqrUrqf103TrZZ+SqGvRftTridV1mX8CUgdib6ZxadtrmA7jvUYS1Xq79T71J8pMn+0pLZ9ws08/rAZRr/qps/7rZb+yfsLD7Mtq0F55mtvEa2mVYn94unzVoL+qtFm/e37bWdr8OIF629UDxe28wjYOp9fltPxgzbWxETVlYzMKxzFd54kO49k4nz9azTE71deHVXMdrmlF/rguN7YnXyan03q5Hqhyc1M5kC5z6Niq3DjQbHxUvsxdltfrY7DKY69OO+ZLWZZhhz7tmKXTY2XL3yfbj9z3VunW9uEi6tWfKFLHJz05Tie7OKqm3ImtTlRTYWcndXbibpmW51g5rWUG2Oe3rZ++yA2ENzak1cHfMlgzkz6R6qWttd0j6HW6bZXnx1xsaSGaP47pwFLXuZ8/ijpH9X7uLKc3XR9a3XU4phX54zqb99VTPmBRZcGOivfoIGf5KoZ00kGLCkVM+myb1YPci+s6efCl6YCoXIZVH4aicrqq+metjsq+uwPq1J8ouLMHS5dO+r9G6Zfc/XmYy9cBAyHbmPZQejzbJfJnH/q4mCb+Ix6QaKs25M8+LnGOn9O15Q+A9rvYmC/9NuH+7LAnUNqY9rpt/hMTaBfOcQA4v4u1fOlBvdJbfzy1jjamPYbTd+76Twi9e+lftI8WsvYXnm7ANbWsXOocPydavgC45qLdjqjH3cojlsGdfuxbxA+vp5tqX1TubiN/ALiG4KsFqDzcRv64jfwB4BpH33APAABwnQi+AAAAGkTwBQAA0CCCLwAAgAYRfAEAADSI4AsAAKBBBF8AAAANIvgCAABoEMEX3JHEMhp0zUsx06krg1FifwkAwHUg+IIjYhl4/fRvRIaRRFEkYSAyGXrSJQADAFwR/rxQC9zCn0eJB3fSn/gSzr8k/yci0/mBRIuxuPo3u/nzNW4jfwC4huCrBa6/8rB/oDuIZDF2NcTajMrdbeQPANfQ7Ygj6KApG5+Vn7qS9hQmMupW/d5O3ZFaQi/2IzP1n//g6Z8AALhqtHy1gA5UnM2fJEkDKGMu7899mUgo868X0b2HSRyruZt40uuppeKB3PUnEkRzefp5lz/DiUztEn4Qyce4Z9blKqfzB+QPAOcQfLVAWyqPZNQVb/i4//gsG3wZvi/B7zd5uhf5+fwjw4kKwxzvjqRydxv5A8A1BF8t0IrKIxlJ1xvKY7SQVZyUSDx6l89v+2PZw5O8vvSkY4MvP4zkQ/9sf61tGojvEip3t5E/AFzDmC+cgH5NxFCmQZQLvFI/3zOZzTZM3z/pQt6D+Oq/x/v17sXeU6D+ncr35r5LAABahZavFnD9zv3410FsedpxOR4s36LmFlpW3Eb+AHANLV84jgqO0m7BY97D1RPTwDX5VGFYUfypx4IF8uRo4AUAwL5o+WoBZ+/c7TgvPSD+47X4mohOZ98BWrb1S3wJwuKAez+cy5erA74UWlbcRv4AcA3BVws4W3nkn1IsOaibUP9tx3f7hKOhA7EPGTsceGlU7m4jfwC4huCrBag83Eb+uI38AeAaxnwBAAA0iOALAACgQQRfAAAADSL4AgAAaNBywD0AAADOj6cdW4CntdxG/riN/AHgGrodAQAAGkTwBQAA0CCCLwAAgAYRfAEAADSI4AsAAKBBBF8AAAANIviCG5KRdO/uzGsBytMgtssAAHAFeM9XC+gA5OrzRwdf3l95DN/k6d7OszyvJ52O/cFBN5E/LUb+AHANwVcL3ETlEQ/krj+TcP4lLw4HWlWo3N1G/gBwDd2OcMij3Lcs8AIAYF8EXzicbq26K43JKsxLZNStHsdlpu5ILZFKfmb2EwAA141uxxbQgYqr+RMP7qQ/C2X+9SIdE2x5MnyMZDHumd8ncSxz86mKJ71e2tSVjLri/X2U8LfI3+FEpmauL0H0IWO7jKtczh+QPwDcQ/DVAm5XHrEM7voyC+fyIc/iDR8lWowlDb3qM0HcxBc/+C1vZsT9j3z+GcpERWG+WveXwwPBqNzdRv4AcA3BVws4X3mYwfIT87EYKCUSj97l89v+WPbwJK8vPdkcVtmWtGlwUEDXFCp3t5E/AFzDmC8cr/ckgfkQyFupherneyaz2Ybp+8cutUlHfv321f8z+ckGhwEA0HK0fLWA63fu6bivQIVeE5nkxnvVZt7xNRSp6F40Y8HMr9x9BQUtK24jfwC4hpYvHCcemLFa4cdYxh+h+JP+/m+k7/wS3cA1/ftv+fRjKpF/f/Wgr9/yy9HACwCAfdHy1QLu3rmng+0nwaq1Kx04f8AYrWzcmB9I+PYk97kB90G0kH0b05pEy4rbyB8AriH4agFXK4/qQGs9IKsriUfybgMuwwRir/LCqyZwBPIHgGsIvlqAysNt5I/byB8ArmHMFwAAQIMIvgAAABpE8AUAANAggi8AAIAGEXwBAAA0iOALAACgQQRfAAAADSL4AgAAaBDBFwAAQIMIvgAAABpE8AUAANAggi8AAIAGHRd8xQPzR2u7o8TO2C2JRzLo3pl0ZuoOZBTXT78Sy8CkH0mt1Ila/tDtqrSjQXeV9q4rg7rfOan4vod83VtwTB7dtERG+eNWNW27Tux1vGmqvr6P3CYcY/NzEJc+W1vPkYEqjbPFij+7LB51pTu45nN0R56e0jF15I06MPhKzIl715/Yn2tSF7DXH8pEAgmjSKIoVJ8mMux7st85oU+kvkpZkwqAup5e/pDtqoBApR2qjQWhThtJGIhMht7uoNNst+L7el0CsLKj8ujWdeTXW3pumin0zVzfnq9mevulltqusHxuevtVlfI020S7VJ8jr+LZ37eHKoC/pzKdicztHBzqiDryxi30VFsUmOX15AfBQhW5Cz+c219uM1+o8lmlCxaRnZOKFiqfFuqqVkvUMw99tR5/4ev11UgXBVXbtfuzI32a1l+Uv2L1Oouql7HfN9iWsmiv/GmpY/Lo0pzLH3uN1j7F9l2+yinWcSa3cP0cz15rJgPTz4VyvWb+1ikX0ZQdebqFyceaF3Oa54fVkbfsgJavBxPdzucL+Xp9sPPqmOsbDZUXT9JLZ1g9eVLRiEy/692BJCN5Hk5Vffwhb4923laxfOomsrXt1pGlfZOX0i18b7xQJfp49zr9h9JdoScPaSMBlo7JIwDH68i9Kk/9B11apZ/Rdk3k6QnqyBu1f/DVe5HxS086e/cn9GSsbkIX43JWJPIzU/+tBSlVEhk9D2UaRPJVzumNNm3XBoOP95u7RpIfSXftsEZ1T0dZa0Flut1D1+kOlRd6DEHFuJ5Ed0nf6a5Vu0xhfEhuWqY9Io8AnIT3EMjv+9znyu7m46Xlgx4XpsqH3Dih5fir0tjPbsW4Az12uFsoW7oyyI8PtWPUCklL88z4tFz5dYr90o0DB43xLaXrqnTrw12L+6W/s96Hbas/e54eWUfeusOb5efhHt2OG+yxjrS7cdWMaZo19+qSmi/mUbSIonARmO6sHU2iy6b2+SIK0y7W7Hj5QVRju9FyO+E+2y05OH/OLOv+LWZdsaswPd6bpqojuGceOcC5/Dmw29EPy/mjJ5UfdrGt6Ha8btvOkdwJUqeraTVsxF8E2frMvPR699XvsvmhWV/pvMrqDF0Gz9X5qaYoSNPnlyvWD/kuuFS5/jh6v+wx0uuMzH6p5fQ2y8uVrX0fW2+UjmN6bFV5q69JvZza3tH175I6hvr72ikrw/PzKreyvO4PrSNvlzpG6YE6yNHBl70g6vQL223lT+L9gy873spM6YW0NW12Mekpd0GG9kKv0yeeXSDL9ejtVgYdm+l0bkqPZyH/jz4n9swjBziXP8sC0f68S/48X5tqBr/7brNBer9wpC3nSP5a3yf4KhYRubqgML+ijFF08FFUtdxqXvnGXdsUfB22X8WbzpVN81eq67EN6y9fYDoIsx+PYsvtqvxNp/UxXUb+vDiwjrxVF3zPl+6S8mQ49SWc7+oXVss+p92Naz1Te7HdW2qaR48yG/bFq2o6LtFP+My/vkx3a6/Xk5fxl6gLRmTyZ2uTcjzoitefyWM0N9tMt/tbZn2vusm6ddLxetO//5ZN38m/vzIV3zZv66diBzIYbJhGVU3mh+URjqfKyeV5upoYs4GVqnOk/hCQvEe5r0qmh59UzJ9+FwdvdOy4lyRJJIljieO0+6tIlSWqoJ4OPfHMOOHXGufyofu1aYiEHWu1cUxzOmbKV+nUl0m/j5nEjA1erb8jv36rGZO+6ZLUr+AxZac6DlW7u7fOi3zl8tTUb6q+XeXz19qYrrxD68hbdqHgKx94bc9ULR6kywYP6rO50NLJjBWTb/mnf9Zn6x46vbF8qFuJrSeH96DCCH099dZO8F76lICUyoSVZCR/JumDAePeKnWn92K2O72Sk9Ich+lf+We+SyL//uoBbb8lG1rw8z2T2WzD9P2TLrRBrTwCcFtyY6+852d5//yUz8+/9pclvSfRJbWKJOTtoCBxP1Vjn8zYXxUa/mwpw6YqqPI8FSQup76q89QvZj/LG9TOy5e6IQ1VeDgzr+DxzNiwkQrfLuiYOvLGXSD40hdO/cBrZSqTYV/6/dVkTs6pfheU+vl9Qw5XDby0OuktyeaTo3OvTnRV938efno/VtxGpdu9Er1XCf2pDN/1MbIPE/zO3u/UMXdAX+qOqHIav6TLHZNHAG6I7gXR7wMMJZovZKHKkfF4rKY3U1aXxQO1rB9I4E+k30ALermFTpunTWLVLWqWH656RwrTly0jLX3zPlbfWf9OB2IyHUr/ki8zPkEdeavOGHylzcHFk0IHXupimAbqwtkWeBXTpo+srk+mWdMPZa5/XvZHlrZr73yqTo7YPCPry+pmpbzP9jUYk8+1u4s0bSBPy3bsqu+7bbvXImsOV8co/lSFYtbluIe98gjHqT5P6zkmLXAKqxu8XIdCNXVT15+om/wPFZx9hOJP+pU3eKdhXyGUa6lK7XqaP02XH7qxpLsf7Ue9HtPjk1tIB2JvpnGp5mua9uC9RhK91il096kjUWYGxu1j+QSbfbrBD7KnIlaD/9LBi7kBd/oJDrOt1aC88pSNoVxLu4EKvtYGKlalzeb5y6cOqwcEVm93fb+ztPnBnfW2q5/gs/N2fLc8vbzT8oM1twws3aZuHrnIufzZMvi98hyvOVi++vqwGHB/3Wz+7noiNjtHAlU2bioH0mXKg/I3DUy35e/yxMoPgFfbME/95crVZZlcTqe/gk2X/zm3veP2S8kGn6tlD3vaMUunnxwsf59sP3LfW6Vb24eLqFdHokgdn/TkqC87+aum3ImrTkRTIWcnbXZibpmW51A57QZVwdemtOapw/x+6yczio+vbN6uvoiyQMBM+iSrl7bWdnfQ6dy2OieOudhOcawuwbn8UcdR71NlmVx1nm5bPq8qbabuOi7AufxpI5u/1VM+YFFlwY6K9+ggZ/kqhnTSQYsKRUz6bJvlQCtVXNfJgy9NB0SFMkzdTFYfhqJyuqo6Zq0eyr67A+rUkSi4swdLl076v5PSL7H78zA/6GmYW0u7jR4PdY78OSX93U0T/17j+K5DG/Inz8Vz/Jzalj8Art/Zgi/9tmDv76NEX/s/qn5raXdxv/KIZXDXl4l+NPm4d4G0Upsqd1fP8XMi+ALgmvMFX3Es0lt//LSOW0u7i9OVR5LI6N1L/6J9tDjyPWzt1Krgy9Fz/JwIvgC45qzdjjgNdysP2+KlPvlhu7qiTonK3W3kDwDXEHy1AJWH28gft5E/AFxzwT8vBAAAcHsIvgAAABpE8AUAANAggi8AAIAGEXwBAAA0iOALAACgQQRfAAAADSL4AgAAaBDBF9yRxDIadM1LMdOpK4NRYn8JAMB1IPiCI2IZeP30b0SGkURRJGEgMhl60iUAAwBcEf68UAvcwp9HiQd30p/4Es6/JP8nItP5gUSLsbj6N7v58zVuI38AuIbgqwWuv/Kwf6A7iGQxdjXE2ozK3W3kDwDX0O2II+igKRuflZ+6kvYUJjLqVv3eTt2RWkIv9iMz9Z//4OmfAAC4arR8tYAOVJzNnyRJAyhjLu/PfZlIKPOvF9G9h0kcq7mbeNLrqaXigdz1JxJEc3n6eZc/w4lM7RJ+EMnHuGfW5Sqn8wfkDwDnEHy1QFsqj2TUFW/4uP/4LBt8Gb4vwe83eboX+fn8I8OJCsMc746kcncb+QPANQRfLdCKyiMZSdcbymO0kFWclEg8epfPb/tj2cOTvL70pGODLz+M5EP/bH+tbRqI7xIqd7eRPwBcw5gvnIB+TcRQpkGUC7xSP98zmc02TN8/6ULeg/jqv8f79e7F3lOg/p3K9+a+SwAAWoWWrxZw/c79+NdBbHnacTkeLN+i5hZaVtxG/gBwDS1fOI4KjtJuwWPew9UT08A1+VRhWFH8qceCBfLkaOAFAMC+aPlqAWfv3O04Lz0g/uO1+JqITmffAVq29Ut8CcLigHs/nMuXqwO+FFpW3Eb+AHANwVcLOFt55J9SLDmom1D/bcd3+4SjoQOxDxk7HHhpVO5uI38AuIbgqwWoPNxG/riN/AHgGsZ8AQAANIjgCwAAoEEEXwAAAA0i+AIAAGjQcsA9AAAAzo+nHVuAp7XcRv64jfwB4Bq6HQEAABpE8AUAANAggi8AAIAGEXwBAAA0iOALAACgQQRfAAAADSL4gqNiGdzdyV13JImdAwDANSD4goMSGXX7MrE/AQBwTQi+4Jxk9CzDqS++b2cAAHBFCL7glmQkz8Op+OGHvD3aeQAAXBGCLxwuHpg/3TKI7c9aYZ7uPrwzP1dOa+O51PLPQ5kGkXy9dOw8AACuC3/bsQV0oOJq/sSDO+nPQpl/vUjHBFueDB8jWYx75vdJHMvcfKriSa+3CrKSUVe84aNEi7Ho1MV1u8vl/AH5A8A9BF8t4HbloZ9K7MssnMuHPBeCp70kI+l6Q3mMFmLjNoIvnAT5A8A1BF8t4Hzlobsa++mzib4KwlZdhonEo3f5/LY/lj08yetLr7LFTCP4wimQPwBcw5gvHK/3JIH5EMhbaazWz/dMZrMN0/ePWSYeqMBr6kvwoD7H8XL6menffss//XPC274AANeBlq8WcP3OPW2hClToNZFJqfWqDpN+10u9gv3X2xRaVtxG/gBwDcFXCzhdeZgux5mE8y95kfVxW8eg2xGnQP4AcA3djjhCLAPdZBW8ielt7LzIWyAy6Q/UbwAAQBWCLxwsHug/ARRIlGvm6o0j0/3YL7z8CwAAZOh2bAG6TdxG/riN/AHgGlq+AAAAGkTwBQAA0CCCLwAAgAYRfAEAADSI4AsAAKBBBF8AAAANIvgCAABoEMEXAABAgwi+AAAAGkTwBQAA0CCCLwAAgAYRfAEAADTovMFXPDB/1LY7SuyM3ZJ4JIPunUlnpu5ARnH99CuxDEz6kWxNbfdx2zSI7bKbJBX7fMgu37jT5T2KEhnlj2vVVHmdHJoO7WPz2hR2+c/W1nJyoErbbLHizy6LR13pDq75/N2Rp2dTs+69cWcKvhJzYt/1J/bnmtQF7vWHMpFAwiiSKArVp4kM+97uAKhAn2h9lbIG71VtR2+rYgp8u9AWKvDqehX77HUJwPZxsrzHuo78esud12F6Xvthbt7bL7VU2aHpcK0Keb+cXsWzv28PVTh/T2U6E5nbOTiFPepeyEJPJxMFZn168oNgoYrrhR/O7S+3mS9U2a7SBYvIzklFi0Cvzw/VEvXMQ1+tx1/4en17pCuy+7MjfRRs2eegOPdQJ80fJ50u7y+hdfljr9G9T89D013Y9V8/p2CvQZO56edCuV0z76vLQ1zGjjzdwuTjARf6aere23CGlq8HCdTd0Xy+kK/XBzuvjrm+EVHX7ZP00hlWT55UDSzT73p3KMlInodTle8f8vZo5x0i+Sd/1f4Eby+77+z9h9KdnycPNRrNkDlR3gM4UEfuVXnpP+iSLP2Mtms4T09V996I0wdfvRcZv/Sks3dfRE/G6iZ1MS5Wv7oZ82em/lsLcKokMnoeyjSI5OvluM6Q+F2tRwJ5Ku9OiaejrLXgIA0m0pP+Wunm5ep+/UR3Od/pble7zNoYETst054i7wEcw3sI5Pd97vOv83Qop+WDHhemyoeB/pyWB8vxV0lcGPvZrRh3oMeHdgtlS1cG+fGhdoxaIWlpnhmfliu/TrFfOgA5aPxvKV1XpVsf7lrcL/2d9T5sW31TeWr27UR17y05X7P8PNyj23GDPdaRNnmumrxN0+khTZ977Xe0CEwTa7AIo2gRReHy51M1vZ8tf46UNTEXD5Nt6rbHfW6OyaZpx/E9xfnTAFfzZyO6HbEvm/d+WHEd5y7POt2Oq64pfxFk6zPz0nLTV7/L5odmfaVzLisX1Mz5fG6mKEjT55crlv/5LrhUuX44er/sMdLrjMx+qeX0NsvLla19H1unlI5jemxVeasOuFlObe905aM6hvr72ikrw/Pztm3lZHXvDVHnRXpynMXRlae9YOqMIbDb2nzx1Zee5PWDp+wiyI6lvkCCXYHFHs6WP0dLx2QV8vdkAdMeeX9h7ubPBocGUYemu7DW5Y+LssCiYspf63XKzq03bTptYX5FGaPo4KOoarnVvHJwoJXrh+P2yy63Vt9smr9SXU9tWH/54tNBmP14FFtuV+VvOpWPS84J695b4vB7vnSXlSfDqS/hfFwaC1S2avJc67naVzKSPxN1qoWvO7aZigdd8fozeYzmuoQ30zz6LbO+V90sfVXSMVnTv/+WTd/Jv78yFd82b+unXgcyGGyYRpuazPfJewBNURXsspzLpsO6mR7lviqZHmJQMX/6XRzY0bHjWpIkkSSOJY5/RI9QKOrJWEUB06EnnhmLVKdMP3S/7LjVx/vSGGE71mrjuNVYPnV9o9KpL5N+HzOJGTe8Wn9Hfv1WMyZ90yWpX8Fjyk51HKp2d2+dF/nK5ak6bDqzc/n8JdXZfMK698Y4GnzlK99Nmb4SD9Jlgwf12VyI6WTGC8m3/NM/67O5hmys11udAsUEaukAw3FvtXyn9yIf6jZlOvlz9a+b6KXRl/wz3zORf/opBf+3ZEMLfr5nMpttmL5/0oUK9st7ADcmN/bKe36W989P+fz8a39Z0ntSpblWs0w/UtU4XzMuWIWGP1vqgqkKqjxPBYnLqa/KQPWL2U8aZCmdly91Yx+q8HBmXsHjmbFho4u+U+2Ude+tcTD40hfWIZXvVCbDvvT7q8mcvFP9rij183v1fUdRehey/tTddo8Vt0qdW3lcqPcqoT+V4bsuAuyDBr+zdz915GX8JV9fG6Zx+UnSQ/MewG3QLS36PVKhRPOFLFQ5Mh6P1fSmgpJ18UAt6wcS+BPpN9ATUW6h0+Zpk1h1i5rlh6uek8L0VSwj9Y39WH1n/TsdiMl0KP2Lv8z0FHXv7blg8JU2FxdPGl35qotlGqgLa1vlW0zbG1ectGoyTad+KHP987JNtGq7qWT0R13UquJ/3RR6VaedfK5f1LGJ4m5B1hz+qe54Ps3xO+yJmrp5j/PafH0Al7e6wct1NlSLB9KfqPL8QwVnH6H4k/4ZX9hsXy+Ua6lK7XpiO02XH7qxpLsf7Ue9HtOqlFtIB2Jvuo47w6t4vNdIotfdz5jvV/ci7yzBly68zYny7zud8f3PNkeuTqZk9Cyeioq97GrQTcl3uvL1JQif1DVm15GbstbLtbR72Jw2lncdrgdvGyv+tbSdtHtx1Q+v91M/MtxVF70697as65p0fv1WIZe6szRfetXlWNseeY/zOubawvWb/axfm/lyPe1im8jnKB84nJINVobvpjsrHfOly1x945ynyhRdHmVlsCqrdaAy6Z/rTx915EVvYDoUT3cFmn2L7RAKvRub3hep0unAUKV7HmTp7F+I8Tx5zo1b+fnTl/6zfgWF/d7J6KCemjo6nZ4Kbm+g8row8zTD6WRPh1RNuadNsicEsycitjxNk03LpynKaTeofOJiQ9rqJ11KNqXV8/PfWT+qfBNPO2ZWeV582qimffLeQXr/WsUe78pjuuEcN7alc1jr8sdFW6/R/FOEqiywr33YVBZUPXm4LEPWzrv0qb/CU37LVzGkkx/oNGn6bJum7F/bRnFd5frh6P3S5vZVQ3bfzCuIqg9DUTmdfmK+nFC/usIe22xKv7t7KuteFNzZTDRNhU3TL7n78zA/6GmZNqY9lB5Yeon82Yc+LqaJ/wa7DNuQP/u4xDl+TteWPwDa72JjvvTbhPuzw55AaWPa65Y9qHAb3azXjHMcAM7vYi1felyY9Hob+sG3a2PaYzh9554kMnr3ZKiHV0SLm3zXyzW1rFzqHD8nWr4AuOai3Y6ox93Kww6UV5/0o9LX0k21Lyp3t5E/AFxD8NUCVB5uI3/cRv4AcI2jb7gHAAC4TgRfAAAADSL4AgAAaBDBFwAAQIMIvgAAABpE8AUAANAggi8AAIAGEXwBAAA0iOAL7khiGXTvzEsxzdQdyChO7C8BALgOBF9wQzKSrqf/VFEgYRRJFIXq00SGfU8GsV0GAIArwJ8XaoFb+PMo8eBO+pNAosVYVn+bO5FR15OhhDL/enH2jz3z52vcRv4AcA0tX3BALJ/6r3MHT7nACwCA60TwhSPEMsjGZxWmrozMUC3dclX1ezt1R2oJrSfjxUIW43LoNZfvqfrv8d7ZVi8AAPZFt2ML6EDF2fxJEhtAaXN5f9bjtlbdhEkcq7mbeNLrlcMqtb54rtL8yOefoRkDFn3luyLd43T+gPwB4ByCrxZoS+WRjLriDR9L47b2pVvTdACn+RKEb/L60nO65YvK3W3kDwDXEHy1QCsqD/O04lAeo4Wseg8TiUfv8vltfyx7eNoaWCXxQJ77E5kGUUWXpDuo3N1G/gBwDcFXC7hfedjWqrUgKZHR4Fn+zuyPZY+/5WO8/SnGtDVNJJx/yYujzV9U7m4jfwC4huCrBVyvPKpfE7GHeCB3/YkEhVYza9vvHEHl7jbyB4BreNoRx1HBUX/iSzg/YpxX70kC9d/kc/1tqrF5B4UvD176MwAAbUfLVws4e+dux3lJEMnHazE66nT26yNMuxen4vuB/H57kns17+fzjwwnU7N+xnzhUOQPANcQfLWAs5WH7RKsckg3oRlg/2ciU/1uL833JXj7UOtx+VlHKnfXkT8AXEPw1QJUHm4jf9xG/gBwDWO+AAAAGkTwBQAA0CCCLwAAgAYRfAEAADRoOeAeAAAA50fLFwAAQIPuFsr//vc/+e+//+wsuIb8cRv54zbyB4BbRP4f7gza56TNncYAAAAASUVORK5CYII=;" parent="1" vertex="1">
          <mxGeometry x="1020" y="152" width="332.7" height="188" as="geometry" />
        </mxCell>
        <mxCell id="90rEh2KffNQOqLEjoO5k-17" value="" style="rounded=0;whiteSpace=wrap;html=1;fillColor=#dae8fc;opacity=40;strokeColor=#6c8ebf;fontStyle=1" parent="1" vertex="1">
          <mxGeometry x="730" y="89" width="670" height="541" as="geometry" />
        </mxCell>
        <mxCell id="YpQikPbCzr31yKiy2MxO-1" value="&lt;span style=&quot;font-size: 19px;&quot;&gt;E3_Pruebas de software&lt;/span&gt;" style="text;html=1;align=center;verticalAlign=middle;whiteSpace=wrap;rounded=0;" vertex="1" parent="1">
          <mxGeometry x="194" y="680" width="220" height="30" as="geometry" />
        </mxCell>
        <mxCell id="YpQikPbCzr31yKiy2MxO-4" value="1" style="ellipse;whiteSpace=wrap;html=1;aspect=fixed;" vertex="1" parent="1">
          <mxGeometry x="200" y="760" width="40" height="40" as="geometry" />
        </mxCell>
        <mxCell id="YpQikPbCzr31yKiy2MxO-6" value="5" style="ellipse;whiteSpace=wrap;html=1;aspect=fixed;" vertex="1" parent="1">
          <mxGeometry x="160" y="940" width="40" height="40" as="geometry" />
        </mxCell>
        <mxCell id="YpQikPbCzr31yKiy2MxO-7" value="2" style="ellipse;whiteSpace=wrap;html=1;aspect=fixed;" vertex="1" parent="1">
          <mxGeometry x="240" y="840" width="40" height="40" as="geometry" />
        </mxCell>
        <mxCell id="YpQikPbCzr31yKiy2MxO-10" value="3" style="ellipse;whiteSpace=wrap;html=1;aspect=fixed;" vertex="1" parent="1">
          <mxGeometry x="280" y="920" width="40" height="40" as="geometry" />
        </mxCell>
        <mxCell id="YpQikPbCzr31yKiy2MxO-11" value="4" style="ellipse;whiteSpace=wrap;html=1;aspect=fixed;" vertex="1" parent="1">
          <mxGeometry x="320" y="1000" width="40" height="40" as="geometry" />
        </mxCell>
        <mxCell id="YpQikPbCzr31yKiy2MxO-12" value="" style="endArrow=classic;html=1;rounded=0;entryX=0.25;entryY=0;entryDx=0;entryDy=0;entryPerimeter=0;" edge="1" parent="1" target="YpQikPbCzr31yKiy2MxO-7">
          <mxGeometry width="50" height="50" relative="1" as="geometry">
            <mxPoint x="230" y="800" as="sourcePoint" />
            <mxPoint x="280" y="750" as="targetPoint" />
          </mxGeometry>
        </mxCell>
        <mxCell id="YpQikPbCzr31yKiy2MxO-17" value="" style="endArrow=classic;html=1;rounded=0;entryX=0.25;entryY=0;entryDx=0;entryDy=0;entryPerimeter=0;" edge="1" parent="1">
          <mxGeometry width="50" height="50" relative="1" as="geometry">
            <mxPoint x="270" y="880" as="sourcePoint" />
            <mxPoint x="290" y="920" as="targetPoint" />
          </mxGeometry>
        </mxCell>
        <mxCell id="YpQikPbCzr31yKiy2MxO-18" value="" style="endArrow=classic;html=1;rounded=0;entryX=0.25;entryY=0;entryDx=0;entryDy=0;entryPerimeter=0;" edge="1" parent="1">
          <mxGeometry width="50" height="50" relative="1" as="geometry">
            <mxPoint x="310" y="960" as="sourcePoint" />
            <mxPoint x="330" y="1000" as="targetPoint" />
          </mxGeometry>
        </mxCell>
        <mxCell id="YpQikPbCzr31yKiy2MxO-19" value="" style="endArrow=classic;html=1;rounded=0;entryX=0.5;entryY=0;entryDx=0;entryDy=0;exitX=0.395;exitY=1.023;exitDx=0;exitDy=0;exitPerimeter=0;" edge="1" parent="1" source="YpQikPbCzr31yKiy2MxO-4" target="YpQikPbCzr31yKiy2MxO-6">
          <mxGeometry width="50" height="50" relative="1" as="geometry">
            <mxPoint x="260" y="830" as="sourcePoint" />
            <mxPoint x="280" y="870" as="targetPoint" />
          </mxGeometry>
        </mxCell>
        <mxCell id="YpQikPbCzr31yKiy2MxO-20" value="" style="endArrow=classic;html=1;rounded=0;entryX=1;entryY=0;entryDx=0;entryDy=0;exitX=0;exitY=1;exitDx=0;exitDy=0;" edge="1" parent="1" source="YpQikPbCzr31yKiy2MxO-7" target="YpQikPbCzr31yKiy2MxO-6">
          <mxGeometry width="50" height="50" relative="1" as="geometry">
            <mxPoint x="270" y="840" as="sourcePoint" />
            <mxPoint x="290" y="880" as="targetPoint" />
          </mxGeometry>
        </mxCell>
        <mxCell id="YpQikPbCzr31yKiy2MxO-21" value="" style="endArrow=classic;html=1;rounded=0;entryX=1;entryY=0.5;entryDx=0;entryDy=0;exitX=0;exitY=0.5;exitDx=0;exitDy=0;" edge="1" parent="1" source="YpQikPbCzr31yKiy2MxO-10" target="YpQikPbCzr31yKiy2MxO-6">
          <mxGeometry width="50" height="50" relative="1" as="geometry">
            <mxPoint x="280" y="850" as="sourcePoint" />
            <mxPoint x="300" y="890" as="targetPoint" />
          </mxGeometry>
        </mxCell>
        <mxCell id="YpQikPbCzr31yKiy2MxO-23" value="6" style="ellipse;whiteSpace=wrap;html=1;aspect=fixed;" vertex="1" parent="1">
          <mxGeometry x="230" y="1070" width="40" height="40" as="geometry" />
        </mxCell>
        <mxCell id="YpQikPbCzr31yKiy2MxO-26" value="" style="endArrow=classic;html=1;rounded=0;entryX=1;entryY=0;entryDx=0;entryDy=0;exitX=0;exitY=1;exitDx=0;exitDy=0;" edge="1" parent="1" source="YpQikPbCzr31yKiy2MxO-11" target="YpQikPbCzr31yKiy2MxO-23">
          <mxGeometry width="50" height="50" relative="1" as="geometry">
            <mxPoint x="330" y="1030" as="sourcePoint" />
            <mxPoint x="211" y="983" as="targetPoint" />
          </mxGeometry>
        </mxCell>
        <mxCell id="YpQikPbCzr31yKiy2MxO-27" value="" style="endArrow=classic;html=1;rounded=0;entryX=0;entryY=0;entryDx=0;entryDy=0;exitX=0.5;exitY=1;exitDx=0;exitDy=0;" edge="1" parent="1" source="YpQikPbCzr31yKiy2MxO-6" target="YpQikPbCzr31yKiy2MxO-23">
          <mxGeometry width="50" height="50" relative="1" as="geometry">
            <mxPoint x="340" y="1040" as="sourcePoint" />
            <mxPoint x="221" y="993" as="targetPoint" />
          </mxGeometry>
        </mxCell>
        <mxCell id="YpQikPbCzr31yKiy2MxO-28" value="a&amp;gt;1" style="text;html=1;align=center;verticalAlign=middle;resizable=0;points=[];autosize=1;strokeColor=none;fillColor=none;" vertex="1" parent="1">
          <mxGeometry x="240" y="760" width="40" height="30" as="geometry" />
        </mxCell>
        <mxCell id="YpQikPbCzr31yKiy2MxO-29" value="T" style="text;html=1;align=center;verticalAlign=middle;resizable=0;points=[];autosize=1;strokeColor=none;fillColor=none;" vertex="1" parent="1">
          <mxGeometry x="170" y="830" width="30" height="30" as="geometry" />
        </mxCell>
        <mxCell id="YpQikPbCzr31yKiy2MxO-31" value="F" style="text;html=1;align=center;verticalAlign=middle;resizable=0;points=[];autosize=1;strokeColor=none;fillColor=none;" vertex="1" parent="1">
          <mxGeometry x="235" y="800" width="30" height="30" as="geometry" />
        </mxCell>
        <mxCell id="YpQikPbCzr31yKiy2MxO-32" value="b&amp;gt;5" style="text;html=1;align=center;verticalAlign=middle;resizable=0;points=[];autosize=1;strokeColor=none;fillColor=none;" vertex="1" parent="1">
          <mxGeometry x="280" y="830" width="40" height="30" as="geometry" />
        </mxCell>
        <mxCell id="YpQikPbCzr31yKiy2MxO-33" value="T" style="text;html=1;align=center;verticalAlign=middle;resizable=0;points=[];autosize=1;strokeColor=none;fillColor=none;" vertex="1" parent="1">
          <mxGeometry x="200" y="890" width="30" height="30" as="geometry" />
        </mxCell>
        <mxCell id="YpQikPbCzr31yKiy2MxO-34" value="F" style="text;html=1;align=center;verticalAlign=middle;resizable=0;points=[];autosize=1;strokeColor=none;fillColor=none;" vertex="1" parent="1">
          <mxGeometry x="270" y="880" width="30" height="30" as="geometry" />
        </mxCell>
        <mxCell id="YpQikPbCzr31yKiy2MxO-35" value="T" style="text;html=1;align=center;verticalAlign=middle;resizable=0;points=[];autosize=1;strokeColor=none;fillColor=none;" vertex="1" parent="1">
          <mxGeometry x="220" y="925" width="30" height="30" as="geometry" />
        </mxCell>
        <mxCell id="YpQikPbCzr31yKiy2MxO-36" value="F" style="text;html=1;align=center;verticalAlign=middle;resizable=0;points=[];autosize=1;strokeColor=none;fillColor=none;" vertex="1" parent="1">
          <mxGeometry x="305" y="950" width="30" height="30" as="geometry" />
        </mxCell>
        <mxCell id="YpQikPbCzr31yKiy2MxO-37" value="c&amp;lt;2" style="text;html=1;align=center;verticalAlign=middle;resizable=0;points=[];autosize=1;strokeColor=none;fillColor=none;" vertex="1" parent="1">
          <mxGeometry x="315" y="910" width="40" height="30" as="geometry" />
        </mxCell>
        <mxCell id="YpQikPbCzr31yKiy2MxO-38" value="&lt;div&gt;Complejidad ciclomática: aristas(línea)-Nodos(circulo)+2&lt;/div&gt;V(G)=(8-6)+2&lt;div&gt;Complejidad ciclomática: Nodos Predicados(circulo con dos salidas)+1&lt;/div&gt;&lt;div&gt;V(G)=(3)+1=4&lt;/div&gt;&lt;div&gt;V(G)=Numero De Regiones = 4&lt;/div&gt;&lt;div&gt;&lt;br&gt;&lt;/div&gt;" style="text;html=1;align=center;verticalAlign=middle;whiteSpace=wrap;rounded=0;" vertex="1" parent="1">
          <mxGeometry x="350" y="820" width="470" height="60" as="geometry" />
        </mxCell>
        <mxCell id="YpQikPbCzr31yKiy2MxO-39" value="" style="shape=image;verticalLabelPosition=bottom;labelBackgroundColor=default;verticalAlign=top;aspect=fixed;imageAspect=0;image=data:image/png,iVBORw0KGgoAAAANSUhEUgAAAvQAAAI9CAIAAADaWXs9AAAgAElEQVR4Ae2d3bmrIBBFU5cFWU+qSTN5uZ2c+ymgqJAoGWWrKw8nxsAAa8ZhH/zJ48ELAhCAAAQgAAEIXILAv/7lh/LHqx6Bx+NRr3Fa/oN/3SCAf13+tA6ByxBwgsYNB3FT360k97o+gD/86xKgdQhAwIQA4sYEo5kRJlczlEWG4F+EzawS/M1QYggC9yaAuNHyP8m9rj/gD/+6BGgdAhAwIYC4McFoZoTJ1QxlkSH4F2EzqwR/M5QYgsC9CSButPxPcq/rD/jDvy4BWocABEwIIG5MMJoZYXI1Q1lkCP5F2Mwqwd8MJYYgcG8CiBst/5Pc6/oD/vCvS4DWIQABEwK3Ezfv9+v1NkG3ixEm112wrjYK/9WodikI/12wXteoeD6/LvgTjOwYcfN+PdumcW11f5umfVaRGK+270TzVNU3psndj3bkHm/pMvj7+3s/u2ip0EVT/vHx70YUO8BFYqUDwXenfcV9FNjejb/A2G7Zhff7NUv95bnf5bM4K6zN59XyyS19rjJol21db3zmNe5anNWb/jVk+DhMjVvNmPNBLpfTh+6aJvdB3Dju07/tZoHXZammOYRdtWRkyn/w6iDXemE/+GE4EA5hGvfGq8fH8Q1PerH8sBv/ZVPs2Z1AlPtd0A8RX5RGluJmbT6vlk92R0wDeQIu2tz3PvLyhQu+CfPrTMd0cr5vbra/oIVrVTFN7h6+1QzmzFlZ++i3asnIlH88RJ/nZ/Ter36J6vhFqnR34g7X2d6Nf53h3LpVn36adrJI/0PqdwZLpoxq+eTWAVB78PuKmxDeqUUCn171/nms6hLT5O7xzybU4vE5c1bWPnajWjIy5R8PMasm/BclKTu2v3E7252NdqyL78bfuqPY+0YgH2KlIY+4+cac72MCe4qbbzGcnnsX52inwn9yPcbwX0B3Gc/TXz8QG5j91/D3t5igXSf7qSWy9lhU7KH11w75Ba7Ho/zkceyB6bZpck8DnjaY4zkh4D05jLzbCCInBvjs1+PCN11DsTPcxVaTf+N8XyLy3Xmvd+6am3XW5gPc8tmUf9ywRxizCYN3izfhmxzPdGaPSk9aiy90cEjjr4PTeydG8CdOHyvsj31oazf+QwtsHEQgHbB9491VwK/FjR1fwyxh0e0Kx04YWRTSlfNJ6BHvFQjsKW4SsTgb4bt7xftclU43tM/nc7gKefJvbcjnbibtz+X6Wbd5hqiO904if3EwTK11lzoPVz5PKg7zQd+5dig16Vo8lLJt0+Tuac7GMe/YCgKdqAtDbpq2f4XVuLF68MLQ3hpvRlw7rzv47TNxQfE6a/PRbfxsyj9u22EaJGH01eybHE83/Hm4hdLxUeQNdrHcvfz538ErfdOhUQ+6KxniftbEIdgHHLvxH1pg4yACPsRm4ZRrfE2YJQ4Bt2sS2yH8+0RdO5/khsv+AwjsKG58uE4C7/OIQsaNb+FY7huCN15dCcfG5OqFZd3cyk23qBCtEGUrPqJC3apEh2/l0ft56OFb0+S+zgNJngkCS3Z9p4fqj2Z6B1zKRGLfspODxZhsouYeV8Wa8g9O7d5T/Y/5DWMdRj/jmQ42V3qoPDQ0uWAz0fbYShzR/kq4yFyian4o8XgLt3fjX9gfqv1AwB/aXW6dpoaFzXVhljgE3K54jvGNRruGWI/iOhnEqV4susqO0xDYXdzEAfWNilutnK7l+CiMzKRDMBH4YUaJ6i4n6LQ1tzeqmDSfPEK+DfLz96bJ3R/n3Tm7+Su6V2olgcQpvX4ovnrEyo9wlTfTjXs3xTZXWfvMds23pvzjBtMDTVxQnOP5KQIjUK5YlNr7Tiz2rm3lIOwDqd34Dy2wcSCBsJIeFnV7lROvMvq+rAuzxCEwD+z0YVYvnxzImqbmBKTEzbxz/WcXrlH6TsfvPMqjuvG5gEWxtLX53kUnfFfn5ZIj2LLTNLm7wfrEMn37yjMxsgW7DONP452DdDaj3rjK82IZkyuLZWqndpvyjxvwPCdCc3BJvHriC87lSSI/d+bnBNznReWFqM+1ktsfD2XR6OTL3z7sxv+3blH7BwLv6aWKXdTHy+RZy/PYTh0C85yklk+yg+OL/Qm4/Ora8bnWqtFMnK0w3+v4Z3eZx3DNQDT9pfPvPMr7ZpZFF8WWRbqa872LamEU2S9CgY3vpsnddS7WdqnezMfqyiT2pseaKDht5ZM3c5Xd/sjpg8lP1oZC5Rum/ONu+JEOesZtJJ5mmUPi6M+RzEH5Uv66KH8EDRfUjKIn10pqAumGsTP2gdRu/IcW2KhHYPIw13kod936HGaJQ2CWk3JhPT9MRgSfWxzLsXU+AruLm29T6xTZ210l3PWqe17cWcRN6jidDmztJ9Pk7o78bx5IJ4TE3lki8UNKFAyD/e7NXGW3f4r1u7XQ7g/vpvzjfuRGGpfpt3MFE5l9UOEjKO/ymYYKH0vEzSHYBwq78R9aYKM6AR/ik6sV14RZ4hCY5aTcweP2j4dJh2BNi9VR0YEfCOwobnL/BA69dffgjFd/+MicLVku4jIdwLMod40siy6KLYt0Ved7F9XCILJfhAIb302Tu+tcJXHjEX725pxzoOX2R8lolbVQ+4d3U/5xP3Ijjcv027mCzpkRkqj0uHdtPOZamR20R2EfKOzGf2iBDQECs/BbGWaJQ2AW7zO7w0jd/vEwCQn+c3YaqrNxSgJ7ipsQsuGm4TkgF5jD3JsI3a5GLi7H/0J7u7Mod20tY31RbFlkbHTo2izlO+OpcuM3hVumyX0GONOldQT+vlxQPHNHjtjcmyudvrJYZoQbdpvyj9tNU45L+O1cwTSClTwX7eRame5Pt7k8JBfmi3fsxr+4R1QsI5CJHWesLMwSJt2uMfkkinQtrjxM5sXKRk4tEQJ7ipswHU6WH8dxuzicC4gxTn3JRcBND4xgbx7l/f5l0UWxZZGu5mJv+qBZFAu9KX43Te5zwulepQeR2Ltg19tLFOz2pwsvsszH2uN/WiutpQe4Za8p/7jhzEDjIm47V9DtH5G40g5MtDdD6m/2SKlcK1N7GWPpriyHUrBnN/4FfaHKLwR8hEWhGVlzgRVy/9owmwZnb25eNRPX85rzar5rOwZ2NHg2DyKwr7gJc1z3MJjJk2mHWwSj2J8HYEfAx+rkYTLp+E2G67LootiySNRupLRcxQs/5yYaa5rAQpi4EE0DTK7c+KIpb4Y8FzUdF1sbG65LP/zdbXLNYFp2NVtwwWA4iCb/PSQCNRxG0cGWckV4cNPoi0WTmUNyOYrSPbvxL+0Q9UoJhBCbnfr5Wz7+YG2YOYtRFIf5JcpdodXErugwWdti6dipp0Bgb3ET6ZOuqfjJwf0NgTGDEJfxlcRN6x9EPJ7b8sWi6O2MuHCd7VwWXRRbFumspfb6fV23u5d78Gt0wMRDKd42Te5usAH77FE3w7VOqbGmCQR7PYDgkHT1wUB4Tm7PK+HNsaAr2WPtHlXcdTu0MRb6EhvF3ENFU/7BaPeewxSX6bfzBQN+dxj1h1PyUc7ewoT8lGboTvN8uudQdh71AR1TD72emEo6cTGMwh278S/sD9V+IDCq72XuLwqzcASMNxm6PZO0H8JfIp/8QI+qvxLYX9x0PZzcAthPtplHVkZXsHex2a/29PG7nOcmAX2EuAnjcMi6UWQG8YtPTJN7yAVDj+ONgWh6Ns3sDb/mPv9tqfG//Wj0a7zZF4+yoIPqWh+66AqNd9JlYyNqvGzTlH/chTTPuITf/lQw4uQfFZICtQzUZaSO9eKHkIRDLu7WaifGlYq3d+Nf3CMq/kTAPeQmCOc+9y+jsRf/g7r+dHQP0ehzQ0Lc9OE/GKucT35iR+XfCBwjbn7r451qk9zrehv+8K9LgNYhAAETAogbE4xmRphczVAWGYJ/ETazSvA3Q4khCNybAOJGy/8k97r+gD/86xKgdQhAwIQA4sYEo5kRJlczlEWG4F+EzawS/M1QYggC9yaAuNHyP8m9rj/gD/+6BGgdAhAwIYC4McFoZoTJ1QxlkSH4F2EzqwR/M5QYgsC9CSButPxPcq/rD/jDvy4BWocABEwIJMSN28VfCEAAAhCAAAQgcF4C//qX77+JaMJIGQFWDsq4WdWCvxXJMjvwL+NGLQhAYEbACRq3E3Ezg1PhI8m9AvSoSfhHMCpswr8CdJqEwBUJIG60vEpyr+sP+MO/LgFahwAETAggbkwwmhlhcjVDWWQI/kXYzCrB3wwlhiBwbwKIGy3/k9zr+gP+8K9LgNYhAAETAogbE4xmRphczVAWGYJ/ETazSvA3Q4khCNybAOJGy/8k97r+gD/86xKgdQhAwIQA4sYEo5kRJlczlEWG4F+EzawS/M1QYggC9yaAuNHy/7WT+/v1bJvGxdzj8Wia9vl6Szng2vylUCc7A/8kFnZCAAJbCSButhLbt/yFk/v7GcuaaPsppG8uzH/fwDWyDn8jkJiBwN0JIG60IuCyyT1ImzZaqnm/2j7+Gh15c1n+WmGe7Q38s2j4AgIQ2EIAcbOF1v5lr5rcvbZpXzOETt7oqJur8p9hl/0If1nX0DEInIsA4kbLX3LJ/f2Kr5LpLpOJll7Ws3MiZqFt/nKiZ71l25Jy/G2HJ28N/vIuooMQOAcBxI2Wn7SSuz9t9Gja9vl8DhcDxwst4XSTC6T537hkEjTiJonltju14v+2bmDgEDg/AcSNlg+VkntKeCz2vTvJk321X66mWZir7Q0l/rVZ1Ggf/jWo0yYELkgAcaPlVKXk/n6/Xq/Xe3ovk5MjX1dk1lH1K0PLs1Xrqu9QSon/DsOTNwl/eRfRQQicgwDiRstP8sl9KW7en16f6HppYySUPrW0/jt5/uuHcsqS8D+l2+g0BPQIIG60fKKY3PsVnOezda/+ATWjIPEnllwcLf6O5eaYX6170o3Qqk3XRUX+c3RX/gz/K3uXsUHgQAKImwNhr2hKK7l3F9R4wdI0TVrcvILq8eJn8pZ5ALGoskHcrIjQfYtoxf++Y8U6BCCwIwHEzY5wC0wLJXe/JjO793t5WmrjKIcn94mt2bhhCPHfyPUaxeF/DT8yCghUJ4C4qe6CSQd0kru7ImZxXuk3cTMomy93UU2YHPlBh/+Ro9ZpC/46vqAnEDg1AcSNlvt0krsTN4vllR/EjV8KeiwEk5ALdPgLQTmwK/A/EDZNQeDKBBA3Wt7VSe6plZsgTwr0SaiqrGy45qb6waAT/9VR0AEIQOAXAoibX+jZ1xVK7oMcia4kblp3ifFWieLv+n48Hpnn/X172p896bRFIf7pDl58L/wv7mCGB4GjCCBujiK9rh2t5B7dLTX8qlSvU8rFjQu4xd+tBtfR3F5Ki//2/p+9BvzP7kH6DwERAogbEUf4bpDc6/oD/vCvS4DWIQABEwKIGxOMZkaYXM1QFhmCfxE2s0rwN0OJIQjcmwDiRsv/JPe6/oA//OsSoHUIQMCEAOLGBKOZESZXM5RFhuBfhM2sEvzNUGIIAvcmgLjR8j/Jva4/4A//ugRoHQIQMCGAuDHBaGaEydUMZZEh+BdhM6sEfzOUGILAvQkgbrT8T3Kv6w/4w78uAVqHAARMCCBuTDCaGWFyNUNZZAj+RdjMKsHfDCWGIHBvAogbLf+T3Ov6A/7wr0uA1iEAARMCiBsTjGZGmFzNUBYZgn8RNrNK8DdDiSEI3JsA4kbL/yT3uv6AP/zrEqB1CEDAhADixgSjmREmVzOURYbgX4TNrBL8zVBiCAL3JoC40fI/yb2uP+AP/7oEaB0CEDAhgLgxwWhmhMnVDGWRIfgXYTOrBH8zlBiCwL0JIG60/E9yr+sP+MO/LgFahwAETAggbkwwmhlhcjVDWWQI/kXYzCrB3wwlhiBwbwKIGy3/k9zr+gP+8K9LgNYhAAETAogbE4xmRoQm1/ez6aKjfZkN7u/v7/1sm95sZ7ppn6+3pfXfbQnx/30wJ7QA/xM6jS5DQJEA4kbLK0LJ3V7cvFoXbo9HMyocW/H0qzeF+P86lFPWh/8p3UanIaBHAHGj5ROh5G4tbry0aYfFmvewR8cHQvx1oBzYE/gfCJumIHBlAogbLe8KJXdbceOtNc/4PFRyZ1WHCPGvyqFW4/CvRZ52IXAxAogbLYcKJfdI3LxfbXShzLD0sgWdW6WZapvuEpze7nz3FsO2ZYX42w7sJNbgfxJH0U0IqBNA3Gh5SCi5B3Hz7AVI07TtcC1wJEZ8KRdHi79DwWBsfnVybn8trwjxr4Wgarvwr4qfxiFwHQKIGy1fCiX3UbaMl8n8/fk1nEi1tE3+1YazUOmFm2HpRuaqYiH+WoF5UG/gfxBomoHA1QkgbrQ8LJTcvbgZZEwAldMp4fvUe85WJ5a6EFw0kjJyxD4h/kcMV64N+Mu5hA5B4JwEEDdafhNK7rkzRvP9708vT3deZ4SOuBlZsPUnFP94AwIQODMBxI2W94SSe1aQTPSIL+XiaPE3rMj4UuFjxHxiLNpfaVOIfyUCdZuFf13+tA6ByxBA3Gi5Uii5rxQ3r2ebfw1PIM5pmGwjldwixL8SgbrNwr8uf1qHwGUIIG60XCmU3LO6IydUPpHMGcvt/2Rrz++E+O85TFnb8Jd1DR2DwLkIIG60/CWU3HO6I7f/M8i0IvK2EqerPlvb7Vsh/ruNUdkw/JW9Q98gcCICiBstZwkl95yIScuUbxiTMia585ulXb8X4r/rOFWNw1/VM/QLAicjgLjRcphQcvfKY3qf9g+/B+VE0WN8aM4PtnZzmhD/3caobBj+yt6hbxA4EQHEjZazhJK7EzfN8+meRNM/odiFS+ljaby86Z5rw6+Ca8WdSm+E4l8FCf2AAARKCCBuSqjtV0couQdx8/57v57Db0s1zbj0UoDh/Rx+w+HxaNrhbqoCU7tUEeK/y/jUjcJf3UP0DwInISAobjZfiDGcP/HrCsPb2utU48m7W1X4afr+zfEk99/4/Vr7bPyzse8PgrWHwK/crOqfjb/VuLFjR6D7md/hd367dC73L5TdWLH0gYCauBmT9fq07M92LH/haPhlow8Awo8luXMl40GxvvlPxjd/R3LfjMy0wtn49ythQ+QHWT/saFYdAqYEfzN2Nv6/jZba5gT8b991R0J3FAxHRPiRO/MGMShLQEfcvDvBHWJx088N9eKmTIwELRXXDte5xvsO8x/J/TDUyYZOzd9Hs8yvkCYJf955av6fh8a3+xMI/+dGUiZMK1XS+f4jpoU8ARFxE0RGdxmGFxerg9HVLcro/lhY1HX7V/cgj3fzNyT3zchMK5yaP+LGNBYwdjICufivl85PBvBi3ZURN21/avTd4d0Yi+XiZmNDR7j+1JPrEYB2buPU/HPJfWdmluZPzd8SxH1spaO2JDfn6rgWavyveh8vKo5URNxM0ORidFJo/NAXL4lcxZgnuY+OrbF1av7paaIGxuI2T82/eNQ3r7hM+LNI9h+jixbizW+5f2bs5rBvNPwLiZv4GvlVdzy5Y6o7J9Vf7zNc8LOq8k4xQnLfCexKs6fmf4Esfmr+K2OMYgsCYyruv5p9/JteNj9eLu+2Pl807w+Kbwpo0SV2nJ7A+cVNrOpdsAdV3yyupZm4K0wFz2eQNZPL6z9Xnlgy/EByN4RZYOrU/ENEvwoGLlLl1PxFGJ6yG5GeiTbLh9L9qxvuljrdPYPlw6ZmROAy4mbybJr3ywuWTwolUkVN/CSEcLfU41PlCKHpJsndFOdmY6fmj7jZ7G8qyBDoNU3zdKl7nnvfn16pITiF5Ka3mkvxqb6x7xgC5xc3GU7fE70vkVqv9EfG/AjLNGW5+9STqyWISrZOzf97zFeiur7ZU/NfP0xKJgj48E08BmT8JqzKx++pDD6YHx7Q+rHUUJyNCxG4rLhZcc/Vh+VP91WF44HkXvfgOjV/xE3d4KH13wgEDbPIu51Cyb/iZfd0B6ql83R32HsMgeuKG3ekLI6TCOuHEtWOhlNPrhHbs26emj/i5qxhR7///nw67p8q/CltF7C6wIFRMOrbVzm7uMmH7Qp9ki+S/2bniDn15LozmyPMn5p//mA4Ap1JG6fmb0Lgpka8tHm+g8iJHjK8EolL2slrCT58tdI4xc5H4OziJnv2yYXzl4uCc4XcfuN/H1YFB8l9FabdCp2aP+Jmt7jA8L4EJupj8mF9u/nwz+X59bYpeUIC5xI3Pnwn93j7wJ38lHe44SmWJ6m6/r+Ex2NSMFjc/r/D7wFw6sn19+FXt3Bq/vnsXp3r2g6cmv/aQVJuRmChZhY7ZhXSH338PyY3v/6lJoN0ffZei4CMuIme0+T65H7VtXtWwbDQGIJ3okXCydq+1vhsg/k195m64ccehtqh8aHRY/1Ncj+W97y1U/NH3MzdyecTEHBKJv7/csjpW7NwEDJdFp/MBbMp4wRU6OLPBNxc7sz4ef1nm0UGBvER1MX4PkZ4/hdeu2/Cs/i6uJ489qbvUL7u33C7YN9mqnLRkEoqnXpyLRmwWJ1T80fciEUT3flOwAXtVNp0tVKS57u1vz+XzeO5IDEZrDJEoZMTcBLCDcLLCe0R9cfCKHc2dfaXupsaKi986sl1xbD7BbqgW/vfSl1R6cAiV+d/IMqipuBfhI1KEIDAnMDJxE0vT5Yqfz6q5Odf6iYN7rHz0snd/TPWhVx4MPrj8eWS7z0Yf7J5af6fBi7yHfxFHEE3IHB2AmcSN06dlK3a/FL3SB9fOLl7aTOeMAwnyMs8uo9XLsx/H2DGVuFvDBRzELgrgTOJm+7Xu8v99Evd8la31rxscu/V5fS2tOGywcKluK1s15S/LP81gxcoA38BJ9AFCFyBwLnEzRWIfx6DYnKfXW/dfn/ceWKM6esDk5InUfuwXYr8Dxu8QEPwF3ACXYDAFQggbrS8KJfcvfzo70BrhzvSxrWW4XsXSbO/QzlfbHEGKre/llfk+NcCUald+FcCT7MQuBoBxI2WR8WSu79OZtAo3Z2Wz/42y7Arej5R/2CJ6Z82PAgxvXAzWFuInlpeEeNfC0O1duFfDT0NQ+BaBBA3Wv7USu5pSeL2btIjM0UUMU83ERU4dlOL/7FjV2gN/gpeoA8QuAABxI2WE6WS+zrh8f708nTzZ5/WtXGYk6T4HzZqnYbgr+MLegKBUxNA3Gi5Tyq5r1mi8bLFxdHi73jyanIuK2KOuIlgsCkV/7gDAhA4LwHEjZbvpJL7KnHzerb513BjVU7D5Jd06vhFin8dBFVbhX9V/DQOgesQQNxo+VIqua8RNyvx5URMbv9Ks+bFpPibj07fIPz1fUQPIXAKAogbLTdJJffccksJsrQtr23C2asSw7Z1pPjbDu0U1uB/CjfRSQjoE0DcaPlIK7l/UiQbBUlSxiR3VnWIFv+qKKo0Dv8q2GkUAtcjgLjR8qlYch/OGo2/e+F/EWqjtvn7+3NK6cFvS2lFnFZvxOJfCw69gQAE1hNA3KxndURJueTu5Y1/QnHb3/T0eDSbnnITwHl5w6+CByC8zwnIxf+8g3yGAATOQQBxo+UnxeQ++22pZlx72c6uf6CxC7pOIg13U223tE8NRf77jFTTKvw1/UKvIHA6AogbLZeR3Ov6A/7wr0uA1iEAARMCiBsTjGZGmFzNUBYZgn8RNrNK8DdDiSEI3JsA4kbL/yT3uv6AP/zrEqB1CEDAhADixgSjmREmVzOURYbgX4TNrBL8zVBiCAL3JoC40fI/yb2uP+AP/7oEaB0CEDAhgLgxwWhmhMnVDGWRIfgXYTOrBH8zlBiCwL0JIG60/E9yr+sP+MO/LgFahwAETAggbkwwmhlhcjVDWWQI/kXYzCrB3wwlhiBwbwKIGy3/k9zr+gP+8K9LgNYhAAETAogbE4xmRphczVAWGYJ/ETazSvA3Q4khCNybAOJGy/8k97r+gD/86xKgdQhAwIQA4sYEo5kRJlczlEWG4F+EzawS/M1QYggC9yaAuNHyP8m9rj/gD/+6BGgdAhAwIYC4McFoZoTJ1QxlkSH4F2EzqwR/M5QYgsC9CSButPxPcq/rD/jDvy4BWocABEwIIG5MMJoZYXI1Q1lkCP5F2Mwqwd8MJYYgcG8CiBst/5Pc6/oD/vCvS4DWIQABEwKIGxOMZkYuPLm+X8+2aVzAPR6Ppmmfr7cZOCNDF+ZvRGhfM/Dfly/WIXAbAogbLVdfNbm/n7GsibafWvrmqvy1ojzfG/jn2fANBCCwgQDiZgOsA4peM7kHadNGSzXvV9sHXyMlb67J/4DANWoC/kYgMQOBuxNA3GhFwCWTu9c27WvG2skbKXVzSf4z7Mof4a/sHfoGgRMRQNxoOUsouaclSYkgcXUW2uYv3UJVhwjxr8qhVuPwr0WediFwMQKIGy2HSiX3pZCZyRH/0QXR4u/XJZmZNQVPSPFXAHJwH+B/MHCag8BVCSButDwrltxnay6zj3/v7v6n7Kv9cjWNoLb5E+OvFZwH9Ab+B0CmCQjcgQDiRsvLcsk90jPRpgU0Z+6xPFtlYbzUhhz/0oGctB78T+o4ug0BNQKIGy2PCCb3XoQ0z1d/M/dcirw/vT6h9dLm66mrTzZ2+E6Q/w6j1DUJf13f0DMInIoA4kbLXYrJfbyyZi5Fxm9cHE3/zkuPpF+te9LNXCqNJWptKfKvxaJGu/CvQZ02IXBBAogbLadKJvegYRZqpXvocP6VeQCxrrL5++Oam8qHg2T8V2ZC8xCAQAEBxE0BtB2rCCZ3J22a/pcTFvJmI4rhyX16azZuJIL8NyI+d3H4n9t/9B4CMgQQNzKu6Dsil9y9tHm+/VNpfpA3g7L5chdVTY/I8a8Jo0Lb8K8AnSYhcEUCiBstr6ol98kdUpMPG7llT21ttLNzcTX+Ow9Xzjz85VxChyBwTgKIGy2/aSX3hZpZ7FhH7yTKhmtu1rlzx1Ja8b/jQDENAQjsSwBxsy/frdaVkrtTMtPzUF6mbLpkxtnpIi3zvMta4I4AACAASURBVL9vT/vbCvGH8kr8fxjGaavC/7Suo+MQ0CKAuJHzh0iHxottph1KSZ5pifmnUdy4aFv8neqnefVDPzO5Hop70Rj8F0jYAQEIlBBA3JRQ268OyX0/tmssw38Npf3KwH8/tliGwK0IIG603E1yr+sP+MO/LgFahwAETAggbkwwmhlhcjVDWWQI/kXYzCrB3wwlhiBwbwKIGy3/k9zr+gP+8K9LgNYhAAETAogbE4xmRphczVAWGYJ/ETazSvA3Q4khCNybAOJGy/8k97r+gD/86xKgdQhAwIRAQty4XfyFAAQgAAEIQAAC5yXwr3/5/puIJoyUEWDloIybVS34W5EsswP/Mm7UggAEZgScoHE7ETczOBU+ktwrQI+ahH8Eo8Im/CtAp0kIXJEA4kbLqyT3uv6AP/zrEqB1CEDAhADixgSjmREmVzOURYbgX4TNrBL8zVBiCAL3JoC40fI/yb2uP+AP/7oEaB0CEDAhgLgxwWhmhMnVDGWRIfgXYTOrBH8zlBiCwL0JIG60/E9yr+sP+MO/LgFahwAETAggbkwwmhlhcjVDWWQI/kXYzCrB3wwlhiBwbwKIGy3/3yO5v59NF3jN861F/+/vHvzVqI/9gf/Igi0IQOAHAoibH+DtUPUGyd0rG8TNDuFzepM3iP/T+4gBQOAUBBA3Wm66dHJ/v19tv2Tjoo6VG63YU+jNpeNfATB9gMBdCCButDx93eQ+LNg07fP9arvA47SUVvAJ9Oa68S8Aly5A4E4EEDda3pZL7t1iS7Ta0jTtq+xCmfezbdrn693XRtxohZ1Mb+TiX4YMHYEABDYRQNxswrV7Ya3k7jTI49G07fP5fAaZE6+4DAsyLpJmf+OSMTvETUyD7YGAVvwP3WIDAhA4GwHEjZbHlJK71y3tK0K02NctyORfbeZ+KMRNxJTNkYBS/I+9YgsCEDgdAcSNlsuUkvv7/Xq9/HmkgZJTN7kVmaHYlw3EzRdAd/1aKf7v6gPGDYFLEEDcaLlRPrkvxc370ytDF3GTAXP33fLxf3cHMX4InIUA4kbLU4rJvV/BeT5b95o9fs+fp3JxtPibW+FB3GiFnUxvFONfBg4dgQAE1hNA3KxndURJreTeXVDjBUvTNGlx8wqqx4ufydszc2sV4uaIYDphG1rxf0KAdBkCEHAEEDdakSCU3P2azOze7+VpqRKAiJsSajeoIxT/N6DNECFwYQKIGy3n6iT3jP5A3GgFzMV6oxP/FwPLcCBwNwKIGy2P6yR3J24m94F3qBA3WgFzsd7oxP/FwDIcCNyNAOJGy+M6yT21cuPPVP3+wwkp4xKO0OEvgePwTsD/cOQ0CIFrEkDcaPlVKLkHJRNfSdy07hLj3F1QH2FGz/tzYfd4hMf/LRaIPhra8Ush/juOUtc0/HV9Q88gcCoCiBstd2kl9+huqUf4Val+0aVQ3IRbr4K2Gd4RN1phWK03WvFfDQMNQwACvxJA3PxK0LY+yd2W51Zr8N9KzLY8/G15Yg0CtyWAuNFyPcm9rj/gD/+6BGgdAhAwIYC4McFoZoTJ1QxlkSH4F2EzqwR/M5QYgsC9CSButPxPcq/rD/jDvy4BWocABEwIIG5MMJoZYXI1Q1lkCP5F2Mwqwd8MJYYgcG8CiBst/5Pc6/oD/vCvS4DWIQABEwKIGxOMZkaYXM1QFhmCfxE2s0rwN0OJIQjcmwDiRsv/JPe6/oA//OsSoHUIQMCEAOLGBKOZESZXM5RFhuBfhM2sEvzNUGIIAvcmgLjR8j/Jva4/4A//ugRoHQIQMCGAuDHBaGaEydUMZZEh+BdhM6sEfzOUGILAvQkgbrT8T3Kv6w/4w78uAVqHAARMCCBuTDCaGWFyNUNZZAj+RdjMKsHfDCWGIHBvAogbLf+T3Ov6A/7wr0uA1iEAARMCiBsTjGZGmFzNUBYZgn8RNrNK8DdDiSEI3JsA4kbL/yT3uv6AP/zrEqB1CEDAhADixgSjmREmVzOURYbgX4TNrBL8zVBiCAL3JoC40fK/UHJ/P5suOtqXJaH369n2ZvvAa5r29bY0/7MtIf4/j+WMBuB/Rq/RZwgIEkDcaDlFKLnbi5vXoGua7uVi7/FonjoCR4i/VmAe1Bv4HwSaZiBwdQKIGy0PCyV3Y3HjzU2kzPvVuhUcGXkjxF8rMA/qDfwPAk0zELg6AcSNloeFkrutuPEyZnGSy+2XWbwR4q8VmAf1Bv4HgaYZCFydAOJGy8NCyT0SN+/xhNKj7DIZMQ2TdboQ/2wfr/wF/K/sXcYGgQMJIG4OhL2iKaHkHsTNs7+wuGnatg3XyUQLLeFskwuk+d9Q0JUKn1ZwqFVEiH8tBFXbhX9V/DQOgesQQNxo+VIouY+yJb6lya/hDDrl/Wz7q4PTf1p/MY1buOnOSb27VaDxWuKydaD9fCbEf79BCluGv7Bz6BoEzkQAcaPlLaHk7sXNIGMCqIIzTN5U6xaBupib3C21uBAnNHX8uxD/4wcv0CL8BZxAFyBwBQKIGy0vCiX3oEjmz7mZ739/ejm6vkqvap7Rk23C3VLGD9P5waVC/H8YxXmrwv+8vqPnEJAigLiRcsefUHKfi5gB1GTpJtItLpYmf/2yjy+0WAT6+/tzxmTUjRD/gfedNuB/J28zVgjsSABxsyPcAtNCyX2luHk92/wrLNOM19wsmEyk0uLbo3cI8T966BLtwV/CDXQCAucngLjR8qFQcl8nbtbhc7ZSKzd+6Sb51TrbpqWE+JuO6yzG4H8WT9FPCIgTQNxoOUgouefETW7/R5D59Zn8Nx8N7vSlEP+dRqhtFv7a/qF3EDgNAcSNlquEkntOxJSpEVdreW1NmbXdnCbEf7cxKhuGv7J36BsETkQAcaPlLKHk7sXN9Ictw/1N2+/eDubiE1DBWryvrj+E+NcFUal1+FcCT7MQuBoBxI2WR4WSu1MjzfPZ/7ile0KxC5fJj19u4OdXbzoj8XNutgulDW1uLCrEf2PPr1Ec/tfwI6OAQHUCiJvqLph0QCi5B3Hz/nu/nm14qHDz2zOFY1OdxIkffjwBUemDEP9KBOo2C/+6/GkdApchUEXc+DMUm05G9LNimGH7aTHcZvzFF+F0iF90GN/WNn/ofExy/+LOnb9W5R8teo0R7LcyK1/ZwPfV1sb/zsSn5lX5T3vJJ2UCkx946f6BWjlTKI+JvhUQcInOVfRJr8DKlipjzl2fXcc6/QkN39Hp1SC5PvhpYfnbR+F3j3IV+/3jz2H3BkLL67v+0fryS5L7ksmRe1T5D+JmGcdNVtzEv/o1RO5gYFX8H8m+a0uV/9EcaK+QwJiwJ6e+d0vYhd2k2gEEXM5zDfn8t1ur/W8mhiTbXXfhf1XxW4NB2sSnMNZfitpPC2ubmnYlNBzXXt/w1NbKTyT3laB2KqbK34ubjI75DsOHcnH97y3YlFDlbzM6rOxMIPwnG80s3TpON+nESXznXmBeg8Bh4iYIhUfTPr1AWBluubzsAvmbEVe7KKnnJpR1DZf5l+Rexs2qlir/XCyuHXfuIFpb/6hyqvyPGj/t/EAgF+R7JuwfukvVnQkcKG7a/uTnuxvQpmhzhZfyJBfKU2Ll4mZTJ6eNln8iuZezs6ipyt8F4/IxQWvHvO5gWWttv3Kq/Pcb8e0tp0OzJPvm6rgWvv0bfHtHXA7AYeJmQi4XhZNC3z6kD4p5rb6pkriuc0SQ3OcOPPazKn93xCBujo0GWjuEwHI6mOV2/9FNVou/37L7zNghQ6IRAQLnFTcrQzaIm1fbDPdarboD2R1x3YJRf63QtsrFnlWdXIsHdLKKqvwRNycLJLq7hcCYbPtas49/72d8bfxwSbzf+HxlvJ8nvimgLb2l7DkInFbcrMz2seZ3x0IQ/rmbTLzfgnZ6PoOs6aqvrFzue9XJtXxE56qpyt+Hu3v6YZzdP2f2AX4I59ewR3NDlb8mrQv1KtIz0Wb5ALt/ZkPC7i7zLLdEzbMSOKm48bn+uxwfknoU3e+XFyzL63hGN0aqqImfkxDulio/QzC2kdgiuSegHLhLlf8gboK8Du/fD4Ge3nAcHMiypClV/iVjoc4mAn2IN0+XnOep+f3plWomPmBWrdSnjLDv1ATOKG7CowzmB8AGR3zP9b5Eau7wx80Pzed7SnLPszniG1X+v8bc94A/gu73NlT5f+85JX4l4GM0cdv2+E3Q9PF7KkcPfRkewfqx1FCcjQsROJ24MVA2nfvcZPEp4F2JpIL5Xrk4QkjuxehMKqryR9yYuBcjygSChlmk5U6h5F/xwnp6eDsm7HSD7FUgcCpxE04JfblcZg1XdxwtjqKo6ocSOx4rqpNrBObSm6r8ETeXDjsG9/fnE25/YeOnxFzAyqum5H+qBeaocg4C5xE3g7LZcHFYPqhX6JN8kfw3PztddXL9eWAnMaDKH3FzkgCim2UExv8lx62NltwxklQwH77a2AjFz0PgJOLGq5TNz9DOyZBVc0WuUM6ohddVJ1eLsZ3Bhir/XCyuZZqX+WstHFNOlf8xo79vKy6+vTCZfFjPJB/jvx496/tASSECauLGB+jkxNNaZZOq68O6+fa7VKm6fqF0+rMkJQtIG/xNct8Aa4eiqvzXpOdkDHtG/rvkv7U7YCw2qcq/eEBUXEFgoWYWO1YYCSe2unz9mtwc2/aznPGprlU9olBNAgeKm+hJTK7V8aEdQ871OTjWEz6td9fQp1/hIQaJuh3ZYbc3MLQdn94aCs2PgLH1yY/MDh229h3J3ZroNnuq/H0cfoq7bAxHR8Gn+ttA7VRalf9Ow8Vs5uYOH8xb4zX869kl+fE5N/2nON2D/RYE3FTvhuqn/b3GPSRf3070Nsbw8jdcI3kR1Yg2Bz2yrBuG0n0zPIDvkXrsQb7u33AzYd9mqnJoxuCd5G4A8QcTqvxXiJu/DzEcJP54oP3AaM+qqvz3HPO9bbtpYUjiAwwX8cv9Q4HcRp+v42w/WbbP1WL/9Qg4keDG5QVD7UH20V6YhWvVNWN29eTeL98FZdr/kqoZOhNDJ+f/S/yb8PvVyMn5/zp86kMAAlYE5MRNn54L9HoHpFZdK2f8/f1dOrmPi3DhweiPx05Pei51yan5/xL/pcCM652avzELzEEAAj8Q0BI3LjuXrdrUqvsD/ETVCyf34cxKuNgvnCAv83cCnsGu8/L/Jf4NwBmZOC9/IwCYgQAEbAhoiZvuF7jLx1WrbnmPlzUvm9z7uTe+ULwbe3LnEsqBe87M/5f4PxDxx6bOzP/jwPgSAhA4loCauDl29HqtKSb32RXV7eRGy7UI09cHyqkbRf5rEV+hHPyv4EXGAAEBAogbASdEXZBL7l5+dHdWtu1wz9l4UdTwvYuk2d+hnC+2OAOV2x8hOXRTjv+ho6/fGPzr+4AeQOASBBA3Wm4US+7+OplBoyxPJUVPL0o8hig8gyj7Q6WIG634q90bsfivjYP2IQCBUgKIm1Jy+9TTSu7pc0lu72IR5hMQr2FikeSLp5v4ZGvX77T47zpUSePwl3QLnYLA+QggbrR8JpXc1wmP96eXp5tfoFnXxmFOkuJ/2Kh1GoK/ji/oCQROTQBxo+U+qeS+ZonGyxYXR4u/YamGlRutMJPtjVT8y1KiYxCAwFcCiJuviA4tIJXcV4mb17PNv4Ybq3ILNPklnUOxD41J8R96dZ8N+N/H14wUArsSQNzsinezcankvkbcrBxhTsTk9q80a15Mir/56PQNwl/fR/QQAqcggLjRcpNUcs8tt5QgS9vKn64qacOgjhR/g/GczQT8z+Yx+gsBUQKIGy3HaCX3T4okXE6zkl9SxiR3rjS4TzEt/vuMUdkq/JW9Q98gcCICiBstZ4kl9+Gs0firGP4XoTZqm78//6ibR/sKtvhtKa3YU+iNWPwrIKEPEIBACQHETQm1/erIJXcvb/wTitvGBUyz6Sk3AZdbCOos8KvggQnvEwJy8T/pHR8gAIHTEEDcaLlKMbnPfluqGddetrPrH2jsgu7xaMp+pmp7q+trKPJf3/vzl4T/+X3ICCAgQQBxI+GGoRMk9wFFlQ34V8E+NAr/AQUbEIDALwQQN7/Qs69LcrdnusUi/LfQsi8Lf3umWITALQkgbrTcTnKv6w/4w78uAVqHAARMCCBuTDCaGWFyNUNZZAj+RdjMKsHfDCWGIHBvAogbLf+T3Ov6A/7wr0uA1iEAARMCiBsTjGZGmFzNUBYZgn8RNrNK8DdDiSEI3JsA4kbL/yT3uv6AP/zrEqB1CEDAhADixgSjmREmVzOURYbgX4TNrBL8zVBiCAL3JoC40fI/yb2uP+AP/7oEaB0CEDAhgLgxwWhmhMnVDGWRIfgXYTOrBH8zlBiCwL0JIG60/E9yr+sP+MO/LgFahwAETAggbkwwmhlhcjVDWWQI/kXYzCrB3wwlhiBwbwKIGy3/k9zr+gP+8K9LgNYhAAETAogbE4xmRphczVAWGYJ/ETazSvA3Q4khCNybAOJGy/8k97r+gD/86xKgdQhAwIQA4sYEo5kRJlczlEWG4F+EzawS/M1QYggC9yaAuNHyP8m9rj/gD/+6BGgdAhAwIYC4McFoZuTCk+v79WybxgXc4/Fomvb5epuBMzJ0Yf5GhPY1A/99+WIdArchgLjRcvVVk/v7GcuaaPuppW+uyl8ryvO9gX+eDd9AAAIbCCBuNsA6oOg1k3uQNm20VPN+tX3wNVLy5pr8DwhcoybgbwQSMxC4OwHEjVYEXDK5e23TvmasnbyRUjeX5D/DrvwR/sreoW8QOBEBxI2Ws4SSe1qSlAgSV2ehbf7SLVR1iBD/qhxqNQ7/WuRpFwIXI4C40XKoVHJfCpmZHPEfXRAt/n5dkplZU/CEFH8FIAf3Af4HA6c5CFyVAOJGy7NiyX225jL7+Pfu7n/KvtovV9MIaps/Mf5awXlAb+B/AGSagMAdCCButLwsl9wjPRNtWkBz5h7Ls1UWxkttyPEvHchJ68H/pI6j2xBQI4C40fKIYHLvRUjzfPU3c8+lyPvT6xNaL22+nrr6ZGOH7wT57zBKXZPw1/UNPYPAqQggbrTcpZjcxytr5lJk/MbF0fTvvPRI+tW6J93MpdJYotaWIv9aLGq0C/8a1GkTAhckgLjRcqpkcg8aZqFWuocO51+ZBxDrKpu/P665qXw4SMZ/ZSY0DwEIFBBA3BRA27GKYHJ30qbpfzlhIW82ohie3Ke3ZuNGIsh/I+JzF4f/uf1H7yEgQwBxI+OKviNyyd1Lm+fbP5XmB3kzKJsvd1HV9Igc/5owKrQN/wrQaRICVySAuNHyqlpyn9whNfmwkVv21NZGOzsXV+O/83DlzMNfziV0CALnJIC40fKbVnJfqJnFjnX0TqJsuOZmnTt3LKUV/zsOFNMQgMC+BBA3+/Ldal0puTslMz0P5WXKpktmnJ0u0jLP+/v2tL+tEH8or8T/h2Gctir8T+s6Og4BLQKIGzl/iHRovNhm2qGU5JmWmH8axY2LtsXfqX6aVz/0M5ProbgXjcF/gYQdEIBACQHETQm1/eqQ3Pdju8Yy/NdQ2q8M/Pdji2UI3IoA4kbL3ST3uv6AP/zrEqB1CEDAhADixgSjmREmVzOURYbgX4TNrBL8zVBiCAL3JoC40fI/yb2uP+AP/7oEaB0CEDAhgLgxwWhmhMnVDGWRIfgXYTOrBH8zlBiCwL0JIG60/E9yr+sP+MO/LgFahwAETAgkxI3bxV8IQAACEIAABCBwXgL/+pfvv4lowkgZAVYOyrhZ1YK/FckyO/Av40YtCEBgRsAJGrcTcTODU+Ejyb0C9KhJ+EcwKmzCvwJ0moTAFQkgbrS8SnKv6w/4w78uAVqHAARMCCBuTDCaGWFyNUNZZAj+RdjMKsHfDCWGIHBvAogbLf+T3Ov6A/7wr0uA1iEAARMCiBsTjGZGmFzNUBYZgn8RNrNK8DdDiSEI3JsA4kbL/yT3uv6AP/zrEqB1CEDAhADixgSjmREmVzOURYbgX4TNrBL8zVBiCAL3JoC40fL/PZL7+9l0gdc831r0//7uwV+N+tgf+I8s2IIABH4ggLj5Ad4OVW+Q3L2yQdzsED6nN3mD+D+9jxgABE5BAHGj5aZLJ/f3+9X2SzYu6li50Yo9hd5cOv4VANMHCNyFAOJGy9PXTe7Dgk3TPt+vtgs8TktpBZ9Ab64b/wJw6QIE7kQAcaPlbbnk3i22RKstTdO+yi6UeT/bpn2+3n1txI1W2Mn0Ri7+ZcjQEQhAYBMBxM0mXLsX1kruToM8Hk3bPp/PZ5A58YrLsCDjImn2Ny4Zs0PcxDTYHghoxf/QLTYgAIGzEUDcaHlMKbl73dK+IkSLfd2CTP7VZu6HQtxETNkcCSjF/9grtiAAgdMRQNxouUwpub/fr9fLn0caKDl1k1uRGYp92UDcfAF016+V4v+uPmDcELgEAcSNlhvlk/tS3Lw/vTJ0ETcZMHffLR//d3cQ44fAWQggbrQ8pZjc+xWc57N1r9nj9/x5KhdHi7+5FR7EjVbYyfRGMf5l4NARCEBgPQHEzXpWR5TUSu7dBTVesDRNkxY3r6B6vPiZvD0zt1Yhbo4IphO2oRX/JwRIlyEAAUcAcaMVCULJ3a/JzO79Xp6WKgGIuCmhdoM6QvF/A9oMEQIXJoC40XKuTnLP6A/EjVbAXKw3OvF/MbAMBwJ3I4C40fK4TnJ34mZyH3iHCnGjFTAX641O/F8MLMOBwN0IIG60PK6T3FMrN/5M1e8/nJAyLuEIHf4SOA7vBPwPR06DELgmAcSNll+FkntQMvGVxE3rLjHO3QX1EWb0vD8Xdo9HePzfYoHoo6EdvxTiv+ModU3DX9c39AwCpyKAuNFyl1Zyj+6WeoRfleoXXQrFTbj1Kmib4R1xoxWG1XqjFf/VMNAwBCDwKwHEza8EbeuT3G15brUG/63EbMvD35Yn1iBwWwKIGy3Xk9zr+gP+8K9LgNYhAAETAogbE4xmRphczVAWGYJ/ETazSvA3Q4khCNybAOJGy/8k97r+gD/86xKgdQhAwIQA4sYEo5kRJlczlEWG4F+EzawS/M1QYggC9yaAuNHyP8m9rj/gD/+6BGgdAhAwIYC4McFoZoTJ1QxlkSH4F2EzqwR/M5QYgsC9CSButPxPcq/rD/jDvy4BWocABEwIIG5MMJoZYXI1Q1lkCP5F2Mwqwd8MJYYgcG8CiBst/5Pc6/oD/vCvS4DWIQABEwKIGxOMZkaYXM1QFhmCfxE2s0rwN0OJIQjcmwDiRsv/JPe6/oA//OsSoHUIQMCEAOLGBKOZESZXM5RFhuBfhM2sEvzNUGIIAvcmgLjR8j/Jva4/4A//ugRoHQIQMCGAuDHBaGaEydUMZZEh+BdhM6sEfzOUGILAvQkgbrT8T3Kv6w/4w78uAVqHAARMCCBuTDCaGWFyNUNZZAj+RdjMKsHfDCWGIHBvAogbLf8LJff3s+mio33tRMjb36+Bkn4L8S/p/unrwP/0LmQAENAggLjR8EPohVBy31fcBGmzo3oKTLe8C/Hf0u3LlIX/ZVzJQCBQlwDipi7/eetCyX1XcfNqXeTtuTQ0Z7vmsxD/Nd29XBn4X86lDAgCdQggbupwz7UqlNx3FDdO2rRtr3B2O++VY/xpvxD/T9287Hfwv6xrGRgEjiWAuDmW97fWhJJ7JG7er7a//qaLlqZ9vb+N4vP3Xtq8/oaNz+WP/FaI/5HDlmkL/jKuoCMQODcBxI2W/4SSexA3z/7C4qZp27bxEqd5DvrGl3JxtPgbFQycI0UTbYZva78L8a+Nokr78K+CnUYhcD0CiBstnwol91G2xGs1fg1nUC3vZ9vkX+2oghzniZ6ZfNDwgxB/DSAH9wL+BwOnOQhclQDiRsuzQsndi5tBxgRQTpIsdoevP707k0NVxM0nWLf8Tij+b8mfQUPgMgQQN1quFEruXtwsrved739/esV0Z9Lmj2tuYjpsdwSE4h+HQAACZyaAuNHynlByn4uYAdRk6caXcnG0+Dss0vz9LaQN4mYgykYgIBT/oUu8QwACZySAuNHymlByXyluXs82/3qGO6sS0gZxoxV6Er0Rin8JHnQCAhAoJIC4KQS3UzWh5L5O3KzikJQ2iJtV7O5VSCj+7wWe0ULgagQQN1oeFUruOXGT258H6Ws85ndVhbNY3f7FfVV5c3t+I8R/z2HK2oa/rGvoGATORQBxo+UvoeSeEzGTS25W0QviJoiZ1Ht0dc4qmzsVEuK/0wi1zcJf2z/0DgKnIYC40XKVUHIfJEmsO95O2pj8lHdOPdX0iBD/mhiqtQ3/auhpGALXIoC40fKnUHJ32qN5PvtfgHJPKPZrLrHcKeeHuClnd9WaQvF/VcSMCwL3IIC40fKzUHIP4ub99349h9+Wan7/balAHHETSPAeCAjFf+gS7xCAwBkJ7CRu/Ly16T/8fgodfp/x0V1jGm4k/k62+2nHkrq+o35FInpb2/V44n90nV7f59SoSO4pKsftq8rfn/KLonDcXDxLMWZSUDEb+L7JtfEfd8Nguyp/g/5joj6B0rmgfs/pgSkBl8qcSZ/WfrY/5s31GXKs0ymESKbMf5wo1bv4N6ujymta99PC/D6elXfvjA33BsJUtKbh1Dh4QmuGynG7q06ug0ZZhmOzTtysrzj9TbAhcgcDle5eq8r/uDCjpb0IjCm5vzlzCOw188hefcJuHQLO+a5tHwg/dOTdieYQT4/HY+0sH6RNvOwRLl39aiPokyh8Qze+1nW/APC9WIpJ6HRce3WnUwa7fST3HJlj9lfl7yP5o45JYiiu6K35UN7ecLI3v+ysyv+XjlNXgcBPc4HCAOiDIQFDcRMm+0f3zBIXZfG8/6HTudy6xsgvdcNvAhQl9dyEsqbTeRYk9zybI76pyj8XUl8HXlzRW84dRF8bNi9Qlb/5aDB4KIFcGP+Wkg8dAo0ZEjAVN21/mcy7Gn1i8AAAIABJREFU696meHKFlxIjF6zx+HMNubrf1JUrtWw5biG9nWs3XXr1XpL7alS7FKzK38VUwW32xRU9wzUH2i64F0ar8l/0hh0HEEgHX0l+zdVZNxccMFSaOJSAobiZ9DsXZ5NC3z6kw/5brf77lVX7bn5TQKkG9zpeSO4p2sftq8rfHTSIm+PcTUsKBJaTxSx9+4/RBQ/x5rf8PTOmMGL6cAQBZXFTHpS+5reo9wtMTXcWbbyIedUdT+547JZ8+uuMhguNVlX+4Niqk+uHft3lq6r8ETdcc3aXA206zjGd9vtnH/+mV78PF737jc/Xvq+eC6Y94tP5CQiLm+2pvpMo4W6pVT9W5AO/h+COlPAfwee7U/6C7no+g6wZGu6uoy45z+Viqerkev5w/nkEVfn7iO/vF3Th6P9+Tt/hJHAXebPXt4qeVwjn18/8fjVQlf+vnad+OYFIz0Sbv9jrDwWX2lceBuWtUVORgKy48Yn+++JLRHWYHPo0H996FRWKN4ek3l8n5L55v7xg+aRQIlXUxE/jCXdLFZxacK2T3GP/HL9dlX8cv0Flu+wc3QmYYlJc0RsbjoOU8UP3VeV/6EhpbEagD+Lm6dLvPPm+P71mhvqP8SHx63J6yj779AloiptwQ/k8xFfyHB6st0kajca/53pfImXfH1WFXSe5j26osVWVf3HoFFf0iL8H/FG+qMr/qEHSTpKAj8LEI0TGbyaa339IZeGhgV/ngsEQG6cjIChuflQ2wQUu4X8M/FB08f69riuRVDDfKy/aG3eQ3EcWNbaq8neRU7DqV1zRI0bc1Ig12pwRCBpmkbQ7hZJ/xUvnM4v+408pOW2SvfoExMRNOK3zw1UrgfkvCdvVXRxjwfRfeEBOssRPR1LVyTUa3103q/Iv1ijFFb2bfzlWbCOlKn/boWBtGwGfdPs7O5KJdZu5uLROfMe9YntnAkriZlA2X64wiJG4tP5hBSX5lbOQD/kV+iRfJP9N3PHMNsk9A+ag3VX5u8hh5eYgX9OMEAEvbZ5vf7NGgbxxh08y4X/4SogBXbElICNuvNJY/YsNHsM3gfJxpsjJkFWTTK5Qzug6v1WdXNd18dKlqvLPhdRX4sUVveX8UfS1aeMCVfkbjwVz6wm4CPbCZPJhvY18FP96fKzvAyWFCBwvbnwITk48+X1flU2i7lg1/jnuxCJQoq5/jnJ36/Z4u1Siarjze9LnsHPS6VTlTd4muW/CZV64Kv81OTgVxiGOk/+0BkTJiv5L/93H+sHOvu9V+e87NKxnCSzUzGJHtmr8hQ/jx+QG1r+fc3LcBNsnImAqbqJnLTm744M3hrwZAjDSBD6nJx7TMXvMR6Jud/nLWN895yO0HTURLpJZXIk/mPRdDXUnq6JDocne4Ucm+jpdV0PlYbDbA4Hkvp2ZZY2q/H0gfwqfdCgWV/TovNVPDVtC/mCrKv8P/eKr/Qi46J3m1sKIXDcX7DcULCsRcPOx65Gfm8u7N2TeMMuP72PeXP5idyROxgrx1hD3y7q+s/0Nf4O46DROvBjTF8rW7dTRKEweiap9ia5DQ0dGRsOthn2HU5XHsiu2SO4rIO1YpCr/FRolHYrFFT3JwqlkBz9U5b/DeDD5jYCLvWVmTUmeb7b671fMBavsUOjsBJyGcKPwemL/IfXxPMqdTQ2ese6GAd4jufvJdJnRNpDap+gZ+BcfAsUV92GdsnoG/ql+sw8CEBAjUEHc9Cm2cF47Y91NHr9Bcu996Na5NtwWt4lieWF9/sWHQHHFcprba+rz3z4makAAAhUIHC1uXIYtW7U5Y92tLr10cu9/Y9SvD3ZvhQp3K9Mt5cX5Fx8CxRW3wDMoK87fYISYgAAEDiFwtLjpfkW7fGBnrLtttNdN7v302kuatvsVdsTNtsAIpYsPgeKKoeVD3q8b/4fgoxEIQCAQOF7chJZ5TxFQTO6za6bb7487T42su5Wuq9prW8RNChH7/hTjH7dAAAInJIC40XKaXHIfF1yath3uKhtPKA3fu0ia/R3LTTEjbqY8+OQJyMU/noEABM5JAHGj5Tex5O5EyOTiGK9mgmyJnm3kn0oUv7WZS4YRN1phJ9MbsfiX4UJHIACBjQQQNxuB7VxcK7mnNYjbW3ZRuMeXNrwz2zXmtfiv6fG1ysD/Wv5kNBCoRgBxUw19smGp5L5Ogrw/vZKD/PO/FxBWfzKFauyW4l8DQOU24V/ZATQPgasQQNxoeVIqua9ZouGaG60AOnlvpOL/5CzpPgRuTQBxo+V+qeS+Sty8nm3+lbuxat2aUAXXSPGvMP7aTcK/tgdoHwIXIYC40XKkVHJfI27K8CFuyrhdvpZU/F+eNgOEwIUJIG60nCuV3PeTIPtZ/tGdUvx/HMsZq8P/jF6jzxAQJIC40XKKVnJPaxB3mc1PVwOnDQu4Qou/AJCDuwD/g4HTHASuSgBxo+VZseTuLxduX+NvZpj8dALiRivsZHojFv8yXOgIBCCwkQDiZiOwnYvLJffhbqime0Jx27iAaUqechM9789ZeTzCA/9KzO3iCTn+u4xS1yj8dX1DzyBwKgKIGy13KSb32W9LNfE6zhZ6g04K0mZ8R9xsAXnhsorxf2HcDA0C1yWAuNHyLcm9rj/gD/+6BGgdAhAwIYC4McFoZoTJ1QxlkSH4F2EzqwR/M5QYgsC9CSButPxPcq/rD/jDvy4BWocABEwIIG5MMJoZYXI1Q1lkCP5F2Mwqwd8MJYYgcG8CiBst/5Pc6/oD/vCvS4DWIQABEwKIGxOMZkaYXM1QFhmCfxE2s0rwN0OJIQjcmwDiRsv/JPe6/oA//OsSoHUIQMCEAOLGBKOZESZXM5RFhuBfhM2sEvzNUGIIAvcmgLjR8j/Jva4/4A//ugRoHQIQMCGAuDHBaGaEydUMZZEh+BdhM6sEfzOUGILAvQkgbrT8T3Kv6w/4w78uAVqHAARMCCBuTDCaGWFyNUNZZAj+RdjMKsHfDCWGIHBvAogbLf+T3Ov6A/7wr0uA1iEAARMCiBsTjGZGmFzNUBYZgn8RNrNK8DdDiSEI3JsA4kbL/yT3uv6AP/zrEqB1CEDAhADixgSjmREmVzOURYbgX4TNrBL8zVBiCAL3JoC40fI/yb2uP+AP/7oEaB0CEDAhgLgxwWhm5MKT6/v1bJvGBdzj8Wia9vl6m4EzMnRh/kaE9jUD/335Yh0CtyGAuNFy9VWT+/sZy5po+6mlb67KXyvK872Bf54N30AAAhsIIG42wDqg6DWTe5A2bbRU8361ffA1UvLmmvwPCFyjJuBvBBIzELg7AcSNVgRcMrl7bdO+ZqydvJFSN5fkP8Ou/BH+yt6hbxA4EQHEjZazhJJ7WpKUCBJXZ6Ft/tItVHWIEP+qHGo1Dv9a5GkXAhcjgLjRcqhUcl8KmZkc8R9dEC3+fl2SmVlT8IQUfwUgB/cB/gcDpzkIXJUA4kbLs2LJfbbmMvv49+7uf8q+2i9X0whqmz8x/lrBeUBv4H8AZJqAwB0IIG60vCyX3CM9E21aQHPmHsuzVRbGS23I8S8dyEnrwf+kjqPbEFAjgLjR8ohgcu9FSPN89Tdzz6XI+9PrE1ovbb6euvpkY4fvBPnvMEpdk/DX9Q09g8CpCCButNylmNzHK2vmUmT8xsXR9O+89Ej61bon3cyl0lii1pYi/1osarQL/xrUaRMCFySAuNFyqmRyDxpmoVa6hw7nX5kHEOsqm78/rrmpfDhIxn9lJjQPAQgUEEDcFEDbsYpgcnfSpul/OWEhbzaiGJ7cp7dm40YiyH8j4nMXh/+5/UfvISBDAHEj44q+I3LJ3Uub59s/leYHeTMomy93UdX0iBz/mjAqtA3/CtBpEgJXJIC40fKqWnKf3CE1+bCRW/bU1kY7OxdX47/zcOXMw1/OJXQIAuckgLjR8ptWcl+omcWOdfROomy45madO3cspRX/Ow4U0xCAwL4EEDf78t1qXSm5OyUzPQ/lZcqmS2acnS7SMs/7+/a0v60QfyivxP+HYZy2KvxP6zo6DgEtAogbOX+IdGi82GbaoZTkmZaYfxrFjYu2xd+pfppXP/Qzk+uhuBeNwX+BhB0QgEAJAcRNCbX96pDc92O7xjL811Darwz892OLZQjcigDiRsvdJPe6/oA//OsSoHUIQMCEAOLGBKOZESZXM5RFhuBfhM2sEvzNUGIIAvcmgLjR8j/Jva4/4A//ugRoHQIQMCGAuDHBaGaEydUMZZEh+BdhM6sEfzOUGILAvQkgbrT8T3Kv6w/4w78uAVqHAARMCCTEjdvFXwhAAAIQgAAEIHBeAv/6l++/iWjCSBkBVg7KuFnVgr8VyTI78C/jRi0IQGBGwAkatxNxM4NT4SPJvQL0qEn4RzAqbMK/AnSahMAVCSButLxKcq/rD/jDvy4BWocABEwIIG5MMJoZYXI1Q1lkCP5F2Mwqwd8MJYYgcG8CiBst/5Pc6/oD/vCvS4DWIQABEwKIGxOMZkaYXM1QFhmCfxE2s0rwN0OJIQjcmwDiRsv/JPe6/oA//OsSoHUIQMCEAOLGBKOZESZXM5RFhuBfhM2sEvzNUGIIAvcmgLjR8j/Jva4/4A//ugRoHQIQMCGAuDHBaGbk2pPr+/Vsm8bF3OPxaJr2+XqbsbMwdG3+FoT2tQH/ffliHQK3IYC40XL1hZP7+xnLmmj7KaRvLsxfK9AzvYF/Bgy7IQCBbQQQN9t47V36ssk9SJs2Wqp5v9o+/hodeXNZ/nsHrpF9+BuBxAwE7k4AcaMVAVdN7l7btK8ZbidvdNTNVfnPsMt+hL+sa+gYBM5FAHGj5S+55P5+xVfJdJfJREsv69k5EbPQNn850bPesm1JOf62w5O3Bn95F9FBCJyDAOJGy09ayd2fNno0bft8PoeLgeOFlnC6yQXS/G9cMgkacZPEctudWvF/WzcwcAicnwDiRsuHSsk9JTwW+96d5Mm+2i9X0yzM1faGEv/aLGq0D/8a1GkTAhckgLjRcqpScn+/X6/X6z29l8nJka8rMuuo+pWh5dmqddV3KKXEf4fhyZuEv7yL6CAEzkEAcaPlJ/nkvhQ370+vT3S9tDESSp9aWv+dPP/1QzllSfif0m10GgJ6BBA3Wj5RTO79Cs7z2bpX/4CaUZD4E0sujhZ/x3JzzK/WPelGaNWm66Ii/zm6K3+G/5W9y9ggcCABxM2BsFc0pZXcuwtqvGBpmiYtbl5B9XjxM3nLPIBYVNkgblZE6L5FtOJ/37FiHQIQ2JEA4mZHuAWmhZK7X5OZ3fu9PC21cZTDk/vE1mzcMIT4b+R6jeLwv4YfGQUEqhNA3FR3waQDOsndXRGzOK/0m7gZlM2Xu6gmTI78oMP/yFHrtAV/HV/QEwicmgDiRst9OsndiZvF8soP4sYvBT0WgknIBTr8haAc2BX4HwibpiBwZQKIGy3v6iT31MpNkCcF+iRUVVY2XHNT/WDQif/qKOgABCDwCwHEzS/07OsKJfdBjkRXEjetu8R4q0Txd30/Ho/M8/6+Pe3PnnTaohD/dAcvvhf+F3cww4PAUQQQN0eRXteOVnKP7pYaflWq1ynl4sYF3OLvVoPraG4vpcV/e//PXgP+Z/cg/YeACAHEjYgjfDdI7nX9AX/41yVA6xCAgAkBxI0JRjMjTK5mKIsMwb8Im1kl+JuhxBAE7k0AcaPlf5J7XX/AH/51CdA6BCBgQgBxY4LRzAiTqxnKIkPwL8JmVgn+ZigxBIF7E0DcaPmf5F7XH/CHf10CtA4BCJgQQNyYYDQzwuRqhrLIEPyLsJlVgr8ZSgxB4N4EEDda/ie51/UH/OFflwCtQwACJgQQNyYYzYwwuZqhLDIE/yJsZpXgb4YSQxC4NwHEjZb/Se51/QF/+NclQOsQgIAJAcSNCUYzI0yuZiiLDMG/CJtZJfibocQQBO5NAHGj5X+Se11/wB/+dQnQOgQgYEIAcWOC0cwIk6sZyiJD8C/CZlYJ/mYoMQSBexNA3Gj5n+Re1x/wh39dArQOAQiYEEDcmGA0M8LkaoayyBD8i7CZVYK/GUoMQeDeBBA3Wv4nudf1B/zhX5cArUMAAiYEEDcmGM2MMLmaoSwyBP8ibGaV4G+GEkMQuDcBxI2W/0nudf0Bf/jXJUDrEICACQHEjQlGMyNCk+v72XTR0b7MBvf39361TW+1j7umaZ+vt6H5300J8f99MCe0AP8TOo0uQ0CRAOJGyytCyd1c3LzaQdc0zahxmqeQvhHirxWYB/UG/geBphkIXJ0A4kbLw0LJ3VjcvFq3WhNJmW4dp9spJG+E+GsF5kG9gf9BoGkGAlcngLjR8rBQcjcVNzljTvLoqBsh/lqBeVBv4H8QaJqBwNUJIG60PCyU3CM9EpZY+mWWtuQymZyIcY0gbrSisF5vhOK/HgRahgAEfieAuPmdoaUFoeQexM2zv7C4adp2uBg4EiO+lIujxd+oYJJSaMPyouVkQ2t3CvFf2+VLlYP/pdzJYCBQjwDiph77VMtCyX2ULfFazfwymfez7a4Ozrza6Aqb5XB9C98U0LLifnuE+O83SGHL8Bd2Dl2DwJkIIG60vCWU3HPSI3eGaTXI7nbwcLdU81n+rLZpVVCIv9WQTmUH/qdyF52FgC4BxI2Wb4SSe+6U0Xz/+9MrRdffN9WHXtPEy0Kp0sfuE+J/7MBFWoO/iCPoBgTOTgBxo+VBoeQ+FzEDqMnSjS/l4mjx9+MZp/frya3gA1U2OgJC8Y9DIACBMxNA3Gh5Tyi5rxQ3r2ebf31/APFEKdX3hRD/+jAq9AD+FaDTJASuSABxo+VVoeS+Ttz8ii/byq+Gy+oL8S8bwMlrwf/kDqT7EFAhgLhR8YTrh1Byz8mO3P5PIN36TPJnqj589cniTt8J8d9phNpm4a/tH3oHgdMQQNxouUoouedETMmJpJytvz9nzfbnOX9wqRD/H0Zx3qrwP6/v6DkEpAggbqTcoXRBpRck059+eheKkWCsmVyFE6x9vO74UAcxuR6Ke9EY/BdI2AEBCJQQQNyUUNuvjlByd3qkeT77X7x0Tyh24VL0S5dByHQmxufc9J8+PulvP9Ypy0L8U927/D74X97FDBACxxBA3BzDeW0rQsk9iJv333DPdq9LfngwTW+o/yHwPu4atafccCvy2jjdq5xQ/O81ROxCAAJHENhJ3PizEJtONyxmvnZyCuMzje6nHeNZc0vd2HI4fZK89jUuGLbjib9bkvhh6u9MktwD2Drv9fj7833ugJz9/RiNx1fc0TX1+O84KEzXIFAyB9XoJ23uRWAPcRMEwvRqjc8jGOv0Jy2G5L5KHvnfO+oqDc/177Y3n+4Ye/FxOhmGMjY8OdGyveHBIsl9QFFlox7/QaP0oTT98zEaj6+4o2fq8d9xUJg+nMCYyX9Ixof3mgZNCdiKm3e3gDIIk/XyIoRivOwRrtH4Gpw+ucflQjfifSuwDdPEY83dO6HTcSOrO53rDck9R+aY/fX4++D7qGOSDI6vmOyGzc56/G36j5XaBErnoNr9pn1zAobiJkz2j+7HEF3Gjef9D133NRd5fY2RX+pOu+Raa9v++tlFX6Zl//L3MK/p9MLYsIPkPqCoslGPv4ubNap6Bub4irMOWH6sx99yFNiqRKB8DqrUYZrdkYCpuGmb7lKXd9fdTVO8K7zUEznhEvPINeTqrlRXQ4fbl+/5sjNxo0P59fZn1XMfSe45Msfsr8f/eI1S3OKOrqjHf8dBYfoTgXSWz+X1T5b+/t7P0jnos12+PSMBQ3EzGX5ZbE5MdKHan+P6KjRm1bqPG6u67vYNRZsJu2HXVu0U6n17J7l/I7Tv9/X4u7hj5eaxr4OxrkdgOVnM0rf/GF3wEG/m/sNcmtUbOj3akYCyuJlF+AYKvmYu6ueWJnpm8mFecvg8lurP8Q4XGv16u1S9yXUY2q036vF3EYW4Qdzc8AAc02k/+NnHfkFmeol9/KnN3DjirKydBG5I/epDFhY327N9dzt44+8I7y78Wec8p4SGY2B+YCWNBN31dGtL89u0StaaXDv1JtfkOG+3sx5/H+7+CYdR8v4WyMdX3DEq6vHfcVCY/k4gSrvR5vd6H0o4O0Ni/1CSry5JQFbc+JS9KTR9nX5Ma5dQZtImXC30RZ54cdO1NPlBgXC3VME/4C68SO51D7N6/OPgdUel//vtEDi+4o4uqsd/x0Fheg2BPo6b56v/f3Gef9+fXhnr7sD4dvhkKrP7/ARcAnXj8MnUZFC/BVa4oXwe4iu7NjxY72tgL6TNNnGTsu/nmsKuk9xX+ninYvX4F8fN8RV3Yt+Zrcd/x0FhehWB8T/GeV4dv5nI/i/q/7c5aFWXKaRMQFDc/KhsAu0VoZ2QNivFzad7qlY0HPq4fCe5L5kcuace/+M1SnGLOzqkHv8dB4XpdQSChplrm/73X9rsK/cg+58S8boeU0qZgJi4Cad1msKFjwi1P1LyhpLSZq24yVTu2v/pmCK5Ry6ssFmPf7HUOL7ijn6px3/HQWF6DQGfUvtrJhfyZo2BeZmfEvHcGJ/PR0BJ3AzKZu2lwIOSSCoYF9vJrzo/efHjfqE6un7Tr3X2+z9cy5k/cvLfrAgPkvsKSDsWqcffhU3BxVrHV7wk/x0HhenvBMb/Fset77U+lvgpEX+0zJenICAjbgatsUHZjBIlIWG+5fzQYBAzqfdP/0Dk7P92SNWbXE8Rrrt3sh7/XDx9HfLxFb92qbxAPf7lfabm7wRcEPs0PvlQbtuZ+ZTDy21T8wQEjhc3XlRMTjwFofEtEBN1x6qv6NbvxCJQom7KP77YVC0l644tjw0n2k01kt9Hcs+zOeKbevzXaJRkHO5a8QjmcRv1+Me9YPtYAgs1s9hR0h9n5NucUmKZOqcgYCpuuodf+1dYBwmfB7EQJEH0m90+O/uHxYQa0Xs4O5So2y3ejPXdOabQdtTEeBZqsjPhIt/G0N+uSLrd4aRY317X3dDwpHKijQ+7SO4f4BzwVT3+Poo/xU46DveseADxaRP1+E/7wafjCLgAnoqQVBpe1aM1c9AqQxQ6PQE3H7th+Lm5fExD8g2z/Pg+5uzlL3ZH4mSsEG8Ncb+s6zvb3/w9iItO48Q/MN4Xytadjjd5VH2oO9x23nc40e7U/LdPJPdvhPb9vh7/FRql0/F9kA8HRAdj14r70l5ar8d/2Rf2HEHAJdxJRPfNpiTPiv6smoNW2KHI+Qk4DeHG4fXE/oPqA3CUO5saPGPdDQO8UXIPaagwEDZA3VBUnn9x/BdX3EDv96Ly/H8fIhYgAIEjCFQQN32WXSr1VaM9Y91VAwuFbpPce0/20Ye4Cc7//l4c/8UVv/fJtMRt4t+UGsYgAIEFgaPFjUuyZfPZGesugH/ZcZfkHp2KLAuGLxxLv1bmXxz/xRVLKZbXU+ZfPipqQgAChxM4Wtz8/b3He4s2j/aMdbcN8h7J3Umbtm278EPcrA6R4vgvrri6a0YF7xH/RrAwAwEI5AkcL27yfeEbzd/WmV0z3eYed77Wf17avD79hsVaW9blmFytiW6zB/9tvCgNAQhkCCBuMmAq7ZZL7v0pjS5KmqZt23C7+3jJ1PC9i6TZ37HcwHOQNuE+H1ZuBjZsyMU/LoEABM5JAHGj5Tex5O4vjYk1ilczYVf0XInoyURhMzyhaIAcSRvEzUCFjUBALP5Dt3iHAATORgBxo+UxreTupEjQMYHURKCEnavenTAa7JUbWtVaSSEt/iUjOHcd+J/bf/QeAjIEEDcyrug7IpXc09pmDuz96RUXnkkbVm5iOGz3BKTiH59AAALnJYC40fKdVHJfs7Ky+pqbhbRB3GiFnkRvpOJfggidgAAEigggboqw7VZJKrmvEjevZ5t/DTdWJaQN4ma3KDqvYan4Py9Geg4BCCButGJAKrmvETer8CWlDeJmFbt7FZKK/3uhZ7QQuBYBxI2WP6WS+7prbr4DDKeuwj1U4d0FX3eXedMs7qv6bnaPElL89xiguE34izuI7kHgLAQQN1qe0kruaXWTWYfJgwziJoiZ1PtwC1XezBHfaPE/YsRabcBfyx/0BgKnJYC40XKdWHL3sqR9jb+Z8U4rngKMg/GCuntVEeO/1zBl7cJf1jV0DALnIoC40fKXXHIfVl36JxS3jQuYxuKxwogbrdhT6I1c/CtAoQ8QgMB2Aoib7cz2rKGY3Ge/LdXE6zi/sEDc/ELvmnUV4/+apBkVBC5OAHGj5WCSe11/wB/+dQnQOgQgYEIAcWOC0cwIk6sZyiJD8C/CZlYJ/mYoMQSBexNA3Gj5n+Re1x/wh39dArQOAQiYEEDcmGA0M8LkaoayyBD8i7CZVYK/GUoMQeDeBBA3Wv4nudf1B/zhX5cArUMAAiYEEDcmGM2MMLmaoSwyBP8ibGaV4G+GEkMQuDcBxI2W/0nudf0Bf/jXJUDrEICACQHEjQlGMyNMrmYoiwzBvwibWSX4m6HEEATuTQBxo+V/kntdf8Af/nUJ0DoEIGBCAHFjgtHMCJOrGcoiQ/AvwmZWCf5mKDEEgXsTQNxo+Z/kXtcf8Id/XQK0DgEImBBA3JhgNDPC5GqGssgQ/IuwmVWCvxlKDEHg3gQQN1r+J7nX9Qf84V+XAK1DAAImBBA3JhjNjDC5mqEsMgT/ImxmleBvhhJDELg3AcSNlv9J7nX9AX/41yVA6xCAgAkBxI0JRjMjTK5mKIsMwb8Im1kl+JuhxBAE7k0AcaPlf5J7XX/AH/51CdA6BCBgQgBxY4LRzMiFJ9f369k2jQu4x+PRNO3z9TYDZ2TowvyNCO1rBv778sU6BG5DAHGj5eqrJvf3M5Y10fZTS99clb9WlOd7A/88G76BAAQ2EEDcbIB1QNFrJvcgbdpoqeb9avvga6TkzTX5HxC4Rk3A3wgkZiBwdwKIG60IuGRy99qmfc1YO3kjpW4uyX+GXfkj/JW9Q98gcCJCKEBjAAAC8klEQVQCiBstZwkl97QkKREkrs5C2/ylW6jqECH+VTnUahz+tcjTLgQuRgBxo+VQqeS+FDIzOeI/uiBa/P26JDOzpuAJKf4KQA7uA/wPBk5zELgqAcSNlmfFkvtszWX28e/d3f+UfbVfrqYR1DZ/Yvy1gvOA3sD/AMg0AYE7EEDcaHlZLrlHeibatIDmzD2WZ6ssjJfakONfOpCT1oP/SR1HtyGgRgBxo+URweTei5Dm+epv5p5Lkfen1ye0Xtp8PXX1ycYO3wny32GUuibhr+sbegaBUxFA3Gi5SzG5j1fWzKXI+I2Lo+nfeemR9Kt1T7qZS6WxRK0tRf61WNRoF/41qNMmBC5IAHGj5VTJ5B40zEKtdA8dzr8yDyDWVTZ/f1xzU/lwkIz/ykxoHgIQKCCAuCmAtmMVweTupE3T/3LCQt5sRDE8uU9vzcaNRJD/RsTnLg7/c/uP3kNAhgDiRsYVfUfkkruXNs+3fyrND/JmUDZf7qKq6RE5/jVhVGgb/hWg0yQErkgAcaPlVbXkPrlDavJhI7fsqa2NdnYursZ/5+HKmYe/nEvoEATOSQBxo+U3reS+UDOLHevonUTZcM3NOnfuWEor/nccKKYhAIF9CSBu9uW71bpScndKZnoeysuUTZfMODtdpGWe9/ftaX9bIf5QXon/D8M4bVX4n9Z1dBwCWgQQN3L+EOnQeLHNtEMpyTMtMf80ihsXbYu/U/00r37oZybXQ3EvGoP/Agk7IACBEgKImxJq+9Uhue/Hdo1l+K+htF8Z+O/HFssQuBUBxI2Wu0nudf0Bf/jXJUDrEICACQHEjQlGMyNMrmYoiwzBvwibWSX4m6HEEATuTQBxo+V/kntdf8Af/nUJ0DoEIGBCAHFjgtHMCJOrGcoiQ/AvwmZWCf5mKDEEgXsTQNxo+Z/kXtcf8Id/XQK0DgEImBBIiBu3i7+1CJj4FSNlBGo5nXYhAAEIQMCcgJsIzM1iEAIQgAAEIAABCNQh8K9//QdGFYzU7+mp9AAAAABJRU5ErkJggg==;" vertex="1" parent="1">
          <mxGeometry x="410" y="900" width="290.26" height="220" as="geometry" />
        </mxCell>
        <mxCell id="YpQikPbCzr31yKiy2MxO-42" value="" style="rounded=0;whiteSpace=wrap;html=1;fillColor=#fff2cc;opacity=40;strokeColor=#d6b656;fontStyle=1" vertex="1" parent="1">
          <mxGeometry x="120" y="675" width="670" height="460" as="geometry" />
        </mxCell>
      </root>
    </mxGraphModel>
  </diagram>
</mxfile>
